<?xml version="1.0" encoding="UTF-8"?>
<svg id="_レイヤー_2" data-name="レイヤー 2" xmlns="http://www.w3.org/2000/svg" viewBox="0 0 101 108.56">
  <defs>
    <style>
      .cls-1 {
        fill: none;
        stroke: #273b69;
        stroke-miterlimit: 10;
      }
    </style>
  </defs>
  <g id="about">
    <g>
      <path class="cls-1" d="m34.5,108.06c-.13-.09-.25-.21-.4-.26-.74-.28-1.15-.79-1.22-1.48-.08-.73-.11-1.47-.11-2.2-.01-5.92-.02-11.84,0-17.76,0-.39.11-.78.09-1.2-.12.29-.21.59-.36.87-1.29,2.53-2.58,5.06-3.87,7.58-1.17,2.29-2.34,4.58-3.52,6.86-.46.9-.91,1.82-1.42,2.7-.73,1.28-1.5,1.52-2.96.95-.75-.29-1.48-.64-2.26-.87-1.61-.47-1.91-1.64-1.31-2.96.75-1.65,1.61-3.26,2.44-4.88,1.95-3.8,3.91-7.59,5.87-11.38.15-.28.31-.56.49-.9h-4.46v-5.29h30.97c.03.07.07.13.07.19,0,1.58,0,3.15.01,4.73,0,.37-.22.38-.52.38-1.42,0-2.84,0-4.34,0,.12.23.22.44.33.65,2.75,5.39,5.5,10.78,8.25,16.17.33.64.67,1.27.38,2.01-.19.49-.49.87-1.03,1.08-.91.36-1.81.74-2.73,1.09-1.48.56-2.41.23-3.08-1.1-2.28-4.49-4.56-8.98-6.84-13.46-.52-1.02-1.05-2.03-1.57-3.05-.14-.28-.22-.59-.35-.88-.06-.13-.18-.24-.34-.44-.07.19-.11.26-.11.32.07,1.57.19,3.14.2,4.71.03,4.99-.01,9.99.02,14.98,0,1.29-.38,2.29-1.75,2.86h-4.57Z"/>
      <path class="cls-1" d="m36.55,38.18c7.21,0,14.42,0,21.63,0,1.74,0,3.44.27,4.94,1.1,2.51,1.39,3.84,3.43,3.84,6.1,0,5.47,0,10.93,0,16.4,0,1.93-.01,3.85,0,5.78.02,3.66-2.73,6.73-7.37,7.16-.77.07-1.56.1-2.34.1-14.09,0-28.18.01-42.27,0-2.51,0-4.85-.55-6.66-2.25-1.25-1.18-1.94-2.61-2.07-4.24-.06-.77-.1-1.54-.1-2.31,0-6.62,0-13.24,0-19.87,0-1.12.04-2.24.51-3.31,1.09-2.49,3.13-3.99,6.04-4.43,1.38-.21,2.8-.22,4.2-.23,6.55-.02,13.09,0,19.64,0h0Z"/>
      <path class="cls-1" d="m38.13,18.11c-.03-9.74,9.17-17.63,19.77-17.61,10.54.02,19.84,8.24,19.7,17.81-.15,9.9-9.17,17.71-20.01,17.58-10.88-.13-19.44-7.9-19.47-17.77Zm19.62,7.67c4.99-.05,8.53-3.33,8.48-7.62-.04-4.45-3.31-7.39-8.4-7.5-5.16-.11-8.31,3.42-8.45,7.57-.13,3.98,3.71,7.62,8.37,7.55Z"/>
      <path class="cls-1" d="m100.5,56.67c0,3.61,0,7.22,0,10.83,0,1.69-.47,3.27-1.63,4.62-1.2,1.39-2.7,2.49-4.64,2.86-2.02.39-4.05.26-5.94-.61-1.98-.91-3.95-1.83-5.91-2.77-3.29-1.58-6.55-3.19-9.85-4.75-.68-.32-.97-.68-.96-1.41.04-5.97.03-11.95,0-17.92,0-.51.12-.76.66-1.02,3.35-1.58,6.65-3.24,10-4.82,2.36-1.12,4.72-2.27,7.18-3.18,3.12-1.15,6.89-.09,9.06,2.22,1.43,1.51,2.02,3.24,2.02,5.18,0,3.59,0,7.18,0,10.77h0Z"/>
      <path class="cls-1" d="m17.75,4.94c9.1.13,17.3,6.71,17.22,15.46-.08,8.79-7.5,15.41-17.25,15.48-9.66.07-17.15-6.78-17.22-15.45-.07-8.6,7.98-15.47,17.25-15.49Zm-.06,22.09c4.21-.08,7.33-2.75,7.43-6.63.1-3.82-3.59-6.55-7.3-6.59-4.82-.05-7.39,3.42-7.5,6.6-.12,3.46,3.57,6.77,7.38,6.62Z"/>
    </g>
  </g>
</svg>