<?xml version="1.0" encoding="UTF-8"?>
<svg id="_レイヤー_2" data-name="レイヤー 2" xmlns="http://www.w3.org/2000/svg" viewBox="0 0 117.87 81.23">
  <defs>
    <style>
      .cls-1 {
        fill: none;
        stroke: #273b69;
        stroke-miterlimit: 10;
        stroke-width: 1.17px;
      }
    </style>
  </defs>
  <g id="about">
    <g>
      <path class="cls-1" d="m70.21,39.57c-.19.93-.36,1.76-.53,2.58-.93,4.4-1.85,8.79-2.78,13.19-1.23,5.82-2.45,11.64-3.71,17.45-.38,1.78-.78,3.56-1.29,5.31-.42,1.43-2.42,2.66-4.01,2.53-1.66-.14-3.04-.79-3.56-2.29-.54-1.56-.88-3.18-1.28-4.78-1.78-7.02-3.55-14.03-5.32-21.05-1.8-7.11-3.6-14.22-5.37-21.33-.14-.54-.51-.77-.98-.97-4.13-1.83-8.27-3.64-12.4-5.49-5.14-2.3-10.32-4.56-15.39-6.98-4.06-1.94-7.83-4.3-10.85-7.49-1.07-1.13-1.93-2.32-2.12-3.83-.22-1.73.71-3.03,2.16-3.96,1.71-1.1,3.74-1.54,5.83-1.68.61-.04,1.22-.09,1.91-.14-.2.66-.36,1.22-.53,1.77-.77,2.43.05,4.56,1.72,6.43,1.27,1.42,2.97,2.4,4.77,3.22.27.12.49.22.68-.12.71-1.32,1.44-2.64,2.15-3.95.05-.08.06-.18.1-.28-1.47-.77-2.81-1.65-3.32-3.17-.38-1.11-.11-2.04.77-3.5,3.92.58,7.76,1.42,11.46,2.8,5.26,1.95,10.31,4.28,15.44,6.47,6.55,2.8,13.06,5.67,19.59,8.51.81.35,1.64.69,2.47,1.01.17.07.44.09.6.02.98-.44,1.94-.91,3.06-1.45-3.35-1.38-6.59-2.72-9.82-4.04,1.11-.42,2.27-.84,3.42-1.29,6.81-2.66,13.61-5.32,20.42-7.99.81-.32,1.6-.68,2.41-.97,1.16-.41,2.84-.16,3.68.95.84,1.11.91,2.5.03,3.57-1.35,1.65-2.71,3.3-4.08,4.94-3.06,3.62-6.14,7.23-9.2,10.84-.04.04-.05.1-.1.23.32.14.63.27.95.41,4.32,1.89,8.64,3.76,12.94,5.67,3.04,1.35,6.15,1.45,9.36.62,3.88-1.01,7.77-2.03,11.66-2.99.79-.19,1.67-.31,2.47-.2,2.1.29,4.56,2.63,3.36,5.1-.67,1.38-1.33,2.76-2.02,4.13-1.66,3.29-3.33,6.57-4.99,9.86-1.1,2.19-3.06,3.49-5.5,4.28-3.62,1.17-7.29,1.06-11.02.41-4.22-.74-8.06-2.31-11.86-4-2.88-1.28-5.75-2.55-8.64-3.81-.41-.18-.59-.35-.42-.8.22-.56.33-1.16.45-1.74.03-.15-.02-.39-.13-.46-.82-.51-1.67-.99-2.63-1.55Zm-30.24-16.05c1.61.02,3.28-1.37,3.22-2.84-.06-1.71-1.41-2.82-3.15-2.9-1.61-.08-3.21,1.38-3.24,2.84-.03,1.47,1.51,2.89,3.16,2.91Zm25.5,4.91c-1.69,0-3.17,1.34-3.17,2.87,0,1.48,1.52,2.82,3.22,2.85,1.59.03,3.21-1.48,3.19-2.94-.02-1.43-1.59-2.77-3.23-2.77ZM24.1,15.33c0,1.52,1.48,2.85,3.18,2.85,1.63,0,3.16-1.37,3.16-2.82,0-1.53-1.48-2.87-3.16-2.87-1.71,0-3.18,1.31-3.18,2.84Zm31.82,10.69c0-1.57-1.45-2.9-3.18-2.91-1.62-.01-3.14,1.35-3.15,2.82-.02,1.5,1.44,2.85,3.09,2.86,1.74.01,3.24-1.27,3.24-2.77Z"/>
      <path class="cls-1" d="m39.97,23.52c-1.65-.02-3.19-1.43-3.16-2.91.03-1.46,1.63-2.92,3.24-2.84,1.73.08,3.08,1.19,3.15,2.9.05,1.48-1.61,2.86-3.22,2.84Z"/>
      <path class="cls-1" d="m65.47,28.43c1.64,0,3.21,1.34,3.23,2.77.02,1.47-1.6,2.97-3.19,2.94-1.7-.03-3.22-1.37-3.22-2.85,0-1.53,1.48-2.87,3.17-2.87Z"/>
      <path class="cls-1" d="m24.1,15.33c0-1.53,1.47-2.84,3.18-2.84,1.69,0,3.16,1.34,3.16,2.87,0,1.45-1.53,2.81-3.16,2.82-1.69,0-3.18-1.32-3.18-2.85Z"/>
      <path class="cls-1" d="m55.92,26.02c0,1.5-1.51,2.79-3.24,2.77-1.64-.01-3.1-1.36-3.09-2.86.01-1.47,1.53-2.83,3.15-2.82,1.73.01,3.18,1.34,3.18,2.91Z"/>
    </g>
  </g>
</svg>