<?xml version="1.0" encoding="UTF-8"?>
<svg id="_レイヤー_2" data-name="レイヤー 2" xmlns="http://www.w3.org/2000/svg" viewBox="0 0 101 119.12">
  <defs>
    <style>
      .cls-1 {
        fill: none;
        stroke: #273b69;
        stroke-miterlimit: 10;
      }
    </style>
  </defs>
  <g id="about">
    <g>
      <path class="cls-1" d="m34.05,21.53c.66.75,1.3,1.43,1.88,2.15,1.52,1.85,2.78,3.83,3.09,6.17.14,1.02.01,2.07.04,3.11.04,1.25.05,2.5.2,3.73.17,1.33,1.15,2.01,2.73,2.07.95.04,1.99-.77,2.26-1.87.45-1.9.28-3.79-.24-5.66-.78-2.81-1.62-5.61-2.43-8.41-.95-3.26-.65-6.5.42-9.68,1.12-3.34,3.16-6.23,5.71-8.81,1.2-1.21,2.37-2.47,3.99-3.24.59-.27,1.24-.45,1.89-.58.62-.12,1.02.21,1.05.78.28,5.15,2.59,9.59,5.93,13.6,1.76,2.11,3.91,3.9,6.16,5.61,2.02,1.53,3.86,3.26,5.76,4.92.82.72,1.61,1.47,2.35,2.26,1.16,1.24,2.3,2.5,3.39,3.8,3.24,3.84,5.73,8.06,7.57,12.59,1.42,3.5,2.59,7.1,2.78,10.85.16,3.13.03,6.27-.07,9.4-.1,3.21-.93,6.32-2.05,9.35-1.03,2.82-2.51,5.47-4.31,7.93-1.49,2.02-3.25,3.87-5.24,5.53-2.35,1.97-4.85,3.75-7.58,5.25-1.11.61-2.32,1.07-3.5,1.58-3.28,1.4-6.76,2.18-10.32,2.67-4.87.66-9.67.27-14.45-.72-2.26-.47-4.32-1.36-6.43-2.17-4.41-1.68-8.14-4.28-11.44-7.35-5.56-5.15-8.97-11.34-10.33-18.51-.6-3.14-.48-6.24-.13-9.37.29-2.64.8-5.25,1.72-7.78,1.17-3.21,3.03-6.08,5.04-8.88,4.72-6.6,9.43-13.21,14.15-19.81.11-.16.23-.31.41-.54Zm25.56,28.79c1.31,3.19,1.08,6.32-.3,9.33-1.4,3.06-3.88,5.31-7.19,6.67-3.97,1.63-7.97,1.59-11.96-.07-4.01-1.67-6.36-4.61-7.65-8.45-4.45,6.39-4.16,14.65.44,20.82,5.46,7.32,14.99,10.67,25.1,7.25,7.79-2.64,13.4-8.84,13.49-17.69.09-9.19-5.28-14.58-11.94-17.86Z"/>
      <path class="cls-1" d="m11.75,118.6c-3.26,0-6.52-.02-9.78.01-.66,0-.94-.16-1.11-.78-1.65-5.97,2.62-11.85,9.3-12.73,4.9-.65,9.68,1.71,11.84,5.79,1.26,2.38,1.28,4.81.57,7.3-.11.4-.44.4-.79.4-2.71,0-5.43,0-8.14,0-.63,0-1.26,0-1.89,0Z"/>
      <path class="cls-1" d="m89.21,118.6c-3.26,0-6.52-.02-9.78.01-.64,0-.92-.17-1.07-.76-1.74-6.67,3.26-11.68,8.73-12.68,6.28-1.15,12.43,2.81,13.3,8.64.21,1.4.12,2.75-.26,4.11-.14.5-.39.68-.95.68-3.32-.02-6.65,0-9.97,0Z"/>
      <path class="cls-1" d="m17.05,102.53c.65-.19,1.29-.39,1.95-.58,5.01-1.41,10.03-2.79,15.03-4.25,1.36-.4,2.65-.3,3.97-.06,3.45.64,6.15,2.38,8.35,4.84.32.35.06.52-.19.7-1.24.86-2.48,1.72-3.74,2.56-4.98,3.31-9.97,6.61-15.1,10.02.42-3.16-.27-5.99-2.3-8.44-2-2.41-4.52-4.17-7.94-4.6,0-.06,0-.12-.01-.17Z"/>
      <path class="cls-1" d="m84,102.64c-3.4.49-5.98,2.17-7.91,4.64-1.93,2.47-2.87,5.24-2.36,8.48-6.54-4.35-12.93-8.6-19.35-12.87.09-.17.12-.27.18-.34,2.65-2.96,5.99-4.78,10.2-5.15.43-.04.9-.02,1.3.09,5.94,1.65,11.88,3.33,17.81,5,.03,0,.05.05.12.14Z"/>
      <path class="cls-1" d="m59.61,50.32c6.66,3.27,12.03,8.67,11.94,17.86-.09,8.85-5.7,15.06-13.49,17.69-10.1,3.42-19.64.07-25.1-7.25-4.6-6.17-4.89-14.43-.44-20.82,1.29,3.84,3.63,6.78,7.65,8.45,3.99,1.66,7.99,1.71,11.96.07,3.31-1.36,5.78-3.61,7.19-6.67,1.38-3.01,1.61-6.14.3-9.33Z"/>
    </g>
  </g>
</svg>