<?xml version="1.0" encoding="UTF-8"?>
<svg id="_レイヤー_2" data-name="レイヤー 2" xmlns="http://www.w3.org/2000/svg" viewBox="0 0 311.51 248.67">
  <defs>
    <style>
      .cls-1 {
        fill: none;
        stroke: #273b69;
        stroke-miterlimit: 10;
        stroke-width: 1.55px;
      }
    </style>
  </defs>
  <g id="concept">
    <g>
      <path class="cls-1" d="m45.13,210.25c2.59-2.85,5.04-5.54,7.48-8.24,4.21-4.66,8.41-9.33,12.63-13.98,3.99-4.4,8-8.77,11.99-13.17,4.22-4.65,8.42-9.32,12.63-13.98,2.42-2.67,4.85-5.33,7.27-7.99,3.81-4.19,7.63-8.38,11.41-12.6.18-.21.2-.79.05-1.03-.8-1.26-1.68-2.46-2.6-3.78-.83.88-1.65,1.71-2.44,2.58-10.06,11.11-20.12,22.22-30.18,33.33-6.46,7.13-12.93,14.25-19.39,21.38-5.92,6.53-11.84,13.06-17.77,19.58-1.6,1.76-1.64,1.77-.24,3.72.26.36.75.63,1.19.79,10.42,3.82,20.84,7.61,31.27,11.41,17.83,6.5,35.67,12.99,53.49,19.5.72.26,1.13.15,1.65-.42,11.51-12.74,23.05-25.46,34.59-38.17,9.5-10.47,19.03-20.92,28.52-31.4,15.01-16.55,30-33.12,45.01-49.68,12.05-13.29,24.1-26.58,36.15-39.86,8.86-9.77,17.72-19.53,26.58-29.3,5.15-5.68,10.3-11.36,15.45-17.04.28-.31.55-.63.77-.89-.63-1.81-1.82-2.75-3.59-3.39-18.85-6.78-37.68-13.66-56.51-20.51-8.98-3.27-17.96-6.54-26.92-9.84-.82-.3-1.29-.14-1.87.5-13.35,14.75-26.72,29.48-40.09,44.22-10.63,11.72-21.26,23.45-31.89,35.18-8.37,9.23-16.73,18.46-25.1,27.68-3.27,3.6-6.54,7.2-9.88,10.87,1.27,1.16,2.5,2.28,3.8,3.47,1.28-1.35,2.55-2.62,3.75-3.95,4.93-5.46,9.82-10.95,14.75-16.4,4.11-4.54,8.28-9.04,12.39-13.58,4.84-5.33,9.64-10.7,14.47-16.04,3.32-3.66,6.67-7.29,9.99-10.95,4.11-4.54,8.2-9.1,12.32-13.64,3.34-3.69,6.72-7.35,10.07-11.04,3.4-3.74,6.77-7.51,10.16-11.26,2.49-2.75,5.01-5.49,7.51-8.24,2.7-2.98,5.42-5.94,8.08-8.96.55-.63,1.02-.73,1.78-.45,6.72,2.49,13.44,4.97,20.17,7.42,11.48,4.18,22.97,8.32,34.46,12.49,6.3,2.29,12.6,4.58,18.9,6.87.39.14.76.31,1.35.55-1.12,1.26-2.11,2.39-3.12,3.5-4.26,4.72-8.53,9.43-12.8,14.14-3.32,3.66-6.66,7.29-9.98,10.95-3.42,3.77-6.82,7.57-10.24,11.34-2.44,2.7-4.9,5.38-7.35,8.07-3.55,3.91-7.08,7.84-10.63,11.75-3.3,3.63-6.62,7.24-9.91,10.87-2.68,2.95-5.32,5.92-8,8.87-3.29,3.63-6.61,7.24-9.9,10.87-2.68,2.95-5.33,5.92-8.01,8.87-3.32,3.66-6.66,7.3-9.98,10.96-3.45,3.8-6.87,7.63-10.32,11.43-3.21,3.55-6.45,7.08-9.67,10.62-4.22,4.65-8.43,9.32-12.64,13.97-2.47,2.72-4.94,5.44-7.42,8.16-4.12,4.53-8.25,9.06-12.38,13.59-5.1,5.61-10.2,11.23-15.29,16.84-3.16,3.49-6.33,6.97-9.46,10.49-.43.49-.79.59-1.38.38-8.88-3.27-17.75-6.55-26.64-9.79-8.13-2.96-16.28-5.87-24.41-8.82-7.67-2.78-15.33-5.58-23-8.37-.31-.11-.61-.27-1.05-.47Z"/>
      <path class="cls-1" d="m105.5,132.15c3.02-.02,7.08-3.41,7.55-6.37.11-.67.06-1.59-.32-2.08-2-2.57-3.48-5.47-5.61-7.98-14.81-17.55-29.49-35.21-44.21-52.83-13.87-16.59-27.75-33.16-41.6-49.77-2.9-3.47-5.72-7-8.51-10.55-1.28-1.63-2.81-2.16-4.75-1.54-3.15,1.01-5.5,3-6.87,6.01-.67,1.48-.51,2.87.64,4.24,19.91,23.73,39.79,47.48,59.67,71.23,12.6,15.05,25.17,30.12,37.78,45.16.54.64,1.38,1.01,2.03,1.57.57.49,1.09,1.05,1.57,1.63.71.86,1.55,1.35,2.64,1.26Z"/>
      <path class="cls-1" d="m229.95,60.43c-.22-.13-.51-.3-.76-.44.46-.67.78-1.15,1.27-1.87-1.36.42-2.03,1.23-2.71,2.07-2.23,2.78-4.29,5.71-6.76,8.27-4.8,4.98-9.38,10.13-13.37,15.77-2.26,3.2-5.39,5.44-8.1,8.15-1.61,1.61-3.28,3.17-4.92,4.76-.14.13-.22.32-.37.43-2.59,1.8-4.55,4.24-6.69,6.5-2.23,2.35-4.61,4.57-6.86,6.9-2.01,2.08-3.92,4.25-5.89,6.37-2.22,2.39-4.51,4.73-6.68,7.16-2.77,3.1-5.51,6.22-8.16,9.42-2.37,2.86-4.6,5.85-6.91,8.76-2.07,2.62-4.17,5.21-6.25,7.82-.05.06-.11.11-.14.18-1.56,3.03-4.14,5.22-6.37,7.7-2.34,2.59-4.65,5.21-7.03,7.76-1.31,1.4-2.72,2.7-4.09,4.05-2.19,2.15-4.37,4.3-6.57,6.43-1.79,1.73-3.69,3.35-5.36,5.18-1.15,1.26-2.03,2.78-3,4.2-.91,1.33-1.8,2.67-2.68,4.01-1.3,1.99-2.4,4.16-3.95,5.94-.82.94-1.44,2-2.24,2.93-.48.55-1.13.94-1.71,1.41.08.11.17.21.25.32,1.33-1.04,2.66-2.07,3.88-3.02.07-.42,0-.8.17-.98,1.08-1.21,2.23-2.35,3.32-3.55.78-.85,1.07-2.14,2.41-2.52.29-.08.54-.75.59-1.18.13-1.11.89-1.58,1.75-2.02.25-.13.43-.4.65-.6-.24-.15-.47-.3-.94-.61.64-.35,1.29-.58,1.76-1,.91-.81,1.75-1.69,2.55-2.6.84-.94,1.54-2.01,2.41-2.92.91-.94,1.94-1.76,2.93-2.62.76-.67,1.44-1.51,2.32-1.98,1.69-.91,2.55-3,4.78-3.22.47-.05.76-1.24,1.26-1.8.96-1.07,2.01-2.06,3.03-3.08.84-.84,1.68-1.67,2.52-2.5.15-.15.26-.38.44-.48,1.4-.71,2.34-1.82,3.2-3.12.57-.86,1.61-1.39,2.35-2.15.69-.69,1.27-1.49,1.89-2.25.12-.14.24-.29.34-.44.21-.35.42-.7.62-1.06.07-.12.07-.28.13-.41.46-.95,1.34-1.67,2.06-2.25.87-.7,1.45-1.59,2.26-2.28,2.04-1.76,3.43-4.04,5.14-6.06.62-.73,1.49-1.25,2.28-1.82,2.03-1.46,3.44-3.38,4.52-5.61.33-.68,1.13-1.11,1.67-1.7,1.56-1.68,3.15-3.35,4.64-5.1,1.47-1.72,2.8-3.55,4.23-5.3.86-1.05,1.77-2.05,2.71-3.03,1.49-1.55,3.06-3.02,4.53-4.58,2.55-2.71,5.03-5.49,7.6-8.18,1.45-1.51,3.03-2.9,4.54-4.35,2.26-2.17,4.5-4.36,6.78-6.51,1.99-1.87,4.05-3.68,6.03-5.55,4.28-4.04,8.09-8.47,11.29-13.42.66-1.03,1.68-1.82,2.5-2.75,2.45-2.79,4.7-5.72,6.3-9.1.64-1.36,1.31-2.71,1.9-4.1.29-.69.42-1.45.69-2.39Z"/>
      <path class="cls-1" d="m116.44,214.56c1.07-.73,2.57-1.25,3.08-2.26.57-1.15,1.72-1.28,2.34-2.18.65-.95,1.55-1.73,2.35-2.58.08-.08.18-.21.26-.21,1.2.03,1.18-1.15,1.76-1.72.57-.56,1.33-.93,2.13-1.47-.17-.16-.41-.38-.68-.63.62-.46,1.19-1.04,1.89-1.37,2.16-1.03,2.73-3.4,4.31-4.93,1.06-1.02,1.64-2.53,2.72-3.52,1.1-1.01,1.46-2.9,3.39-2.99.17,0,.47-.42.44-.62-.21-1.73.93-2.67,2.01-3.72.62-.61.94-1.51,1.5-2.19.47-.57,1.31-.91,1.63-1.54.72-1.39,2.31-1.47,3.29-2.44.72-.72,1.79-.96,2.41-1.94.38-.59,1.31-.83,2.19-1.34.02-.02.18-.28.41-.41.43-.24.93-.35,1.34-.61,1.18-.75,2.42-1.43,3.46-2.34,1.33-1.17,2.85-2.19,3.6-3.95.33-.78.94-1.45,1.49-2.11.93-1.11,1.18-2.4,1.31-3.8.09-.95.46-1.89.76-2.82.32-1.01.67-2.02,1.05-3.02.66-1.75,1.92-2.99,3.58-3.75.97-.45,2.13-.53,3.07-1.02,1.45-.75,2.93-1.55,4.15-2.61,1.08-.94,1.9-2.21,2.7-3.43,1.77-2.73,3.92-5.13,6.11-7.53,1.73-1.89,3.1-4.13,4.45-6.34,1.27-2.08,2.7-3.83,5.15-4.5,2.6-.71,5.1-1.65,7.29-3.27,1.5-1.1,2.56-2.52,3.5-4.15.88-1.54,1.42-3.06,1.69-4.78.25-1.52-.2-2.87-.82-4.15-.82-1.69-.82-3.28.28-4.74.11-.15.29-.27.35-.44.43-1.23.43-1.23,1.68-2.17-.31-.08-.53-.23-.69-.18-4.03,1.28-6.79,5.26-7.26,9.96-.2,1.99-.84,3.95-1.5,5.85-.24.67-1.07,1.27-1.78,1.61-1.74.85-3.55,1.56-5.36,2.27-2.7,1.05-4.93,2.74-6.69,5.01-.79,1.01-1.52,2.09-2.12,3.22-1.54,2.89-3.74,5.25-5.95,7.6-1.7,1.81-3.45,3.63-4.44,5.94-.76,1.78-2.25,2.51-3.85,2.88-2.6.61-4.69,1.98-6.5,3.82-1.3,1.33-2.43,2.83-3.64,4.24-1.52,1.77-1.63,3.97-1.92,6.12-.1.74-.27,1.48-.46,2.2-.24.95-.61,1.86-.78,2.82-.25,1.42-1.26,2.21-2.24,3.04-1.48,1.25-2.93,2.54-4.48,3.71-1.01.76-2.18,1.3-3.26,1.98-1.34.85-2.77,1.62-3.95,2.66-1.07.95-1.9,2.18-2.75,3.35-.78,1.07-1.43,2.22-2.17,3.32-.83,1.24-1.7,2.46-2.54,3.7-1.22,1.83-2.37,3.71-3.66,5.48-1.05,1.44-2.31,2.73-3.42,4.14-1.9,2.41-3.73,4.88-5.62,7.3-.41.53-1,.91-1.46,1.41-.58.62-1.09,1.3-1.66,1.93-.34.38-.77.68-1.12,1.05-.21.22-.36.51-.55.76-.29.38-.55.79-.88,1.13-.36.37-.79.66-1.19.99.08.09.16.19.24.28Z"/>
      <path class="cls-1" d="m227.31,36.24c.45-.4.82-.72,1.19-1.05-.07-.12-.15-.25-.22-.37-.76.42-1.62.72-2.27,1.27-2.01,1.72-3.88,3.6-5.9,5.3-3.55,2.98-7.23,5.82-10.76,8.82-1.86,1.57-3.57,3.33-5.28,5.06-1.68,1.7-3.33,3.45-4.9,5.25-.82.93-1.44,2.03-2.17,3.05-.57.8-1.19,1.56-1.72,2.38-.71,1.11-1.38,2.24-2,3.39-1.57,2.95-2.93,6.03-4.7,8.86-1.74,2.78-3.7,5.43-5.91,7.89-1.53,1.71-3.54,2.45-5.44,3.44-4.15,2.16-7.99,4.68-10.78,8.54-1.24,1.72-2.56,3.39-3.83,5.09-.18.24-.37.51-.44.79-.59,2.34-2.42,3.86-3.71,5.74-1.56,2.27-3,4.61-4.5,6.91-.82,1.25-1.65,2.5-2.47,3.75-1.27,1.94-2.5,3.91-3.82,5.81-2.02,2.9-4.12,5.75-6.15,8.64-1.29,1.83-2.49,3.73-3.82,5.53-.7.95-1.59,1.77-2.38,2.65-.21.24-.37.52-.38.97,1.02-.74,2.04-1.49,3.04-2.22,0-.26-.08-.68.01-.72,1.77-.79,2.6-2.5,3.81-3.83.15-.17.36-.47.49-.44.85.17,1.09-.65,1.15-1,.22-1.28,1.21-1.51,2.3-1.92-.35-.28-.61-.49-1.05-.85.61-.24,1.19-.35,1.62-.67.63-.47,1.25-1.01,1.68-1.65.99-1.48,1.7-3.17,2.83-4.52.81-.96,1.26-2.29,2.52-2.87.08-.04.16-.19.16-.29.06-1.41,1.24-1.7,2.2-2.24.26-.15.65-.5.61-.67-.35-1.58.78-2.38,1.62-3.37.56-.66.94-1.47,1.49-2.14.38-.46.99-.73,1.35-1.2.9-1.16,1.37-2.68,2.86-3.33-.02-1.25,1.43-1.87,1.36-3.17-.01-.22.24-.47.41-.67.93-1.11,1.88-2.21,2.8-3.33,1.01-1.24,1.92-2.56,3-3.73.54-.58,1.39-.86,2.05-1.34.9-.65,1.75-1.38,2.66-2.03.5-.35,1.06-.61,1.61-.88,2.42-1.22,5.04-2.16,7.22-3.72,1.75-1.26,2.98-3.25,4.43-4.93.71-.82,1.44-1.62,2.09-2.48.95-1.25,1.94-2.48,2.73-3.83,1.37-2.33,2.58-4.76,3.89-7.13.55-1,1.14-1.98,1.75-2.95,1.65-2.6,3.17-5.3,5.03-7.74,1.52-1.99,3.4-3.71,5.21-5.46,2.09-2.02,4.25-3.96,6.44-5.88,1.45-1.27,3.17-2.29,4.45-3.71,1.62-1.79,2.94-3.86,4.36-5.83.43-.6.79-1.26,1.17-1.9.43-.72.9-1.43,1.26-2.2.11-.23-.13-.62-.21-.92Z"/>
      <path class="cls-1" d="m128.59,152.04c-.16-7.85-3.52-14.27-7.89-20.3-.12.01-.23.03-.35.04,0,.59-.08,1.2.02,1.77.23,1.33.28,2.47-1.24,3.16-.93.42-1.26,1.34-1.03,2.33.46,1.98.05,3.73-1.01,5.46-.98,1.6-.8,1.97.78,3.03,2.88,1.93,5.92,3.51,9.33,4.27.4.09.82.14,1.4.24Z"/>
    </g>
  </g>
</svg>