<?xml version="1.0" encoding="UTF-8"?>
<svg id="_レイヤー_2" data-name="レイヤー 2" xmlns="http://www.w3.org/2000/svg" viewBox="0 0 300.5 129.29">
  <defs>
    <style>
      .cls-1 {
        stroke-miterlimit: 10;
      }

      .cls-1, .cls-2 {
        fill: none;
        stroke: #273b69;
      }

      .cls-2 {
        stroke-linecap: round;
        stroke-linejoin: round;
      }

      .cls-3 {
        fill: #687696;
        font-family: TA-miyabi-90ms-RKSJ-H, TA-miyabi;
        font-size: 115.71px;
      }
    </style>
  </defs>
  <g id="concept">
    <g>
      <path class="cls-1" d="m182.87,66.31c-.21-.96-.7-1.86-1.47-2.49l-18.24-14.96c-1.72-1.41-4.11-1.01-5.34.9-1.23,1.91-.83,4.6.89,6.01l10.04,8.24h-23.45c-2.28,0-4.13,1.85-4.13,4.13s1.85,4.13,4.13,4.13h23.89l-9.5,9.5c-1.6,1.6-1.6,4.2,0,5.81,1.6,1.6,4.2,1.6,5.81,0l16.59-16.59c1.27-1.27,1.52-3.16.77-4.69Z"/>
      <g>
        <line class="cls-2" x1="255.85" y1="14.03" x2="291.17" y2="14.03"/>
        <line class="cls-2" x1="255.85" y1="14.15" x2="255.85" y2="121.17"/>
        <line class="cls-2" x1="291.17" y1="14.03" x2="291.17" y2="121.06"/>
        <line class="cls-2" x1="273.51" y1="13.88" x2="273.51" y2=".5"/>
        <line class="cls-2" x1="273.51" y1="30.97" x2="273.51" y2="37.65"/>
        <line class="cls-2" x1="273.51" y1="74.42" x2="273.51" y2="81.11"/>
        <line class="cls-2" x1="247.01" y1="56.04" x2="300" y2="56.04"/>
      </g>
      <text class="cls-3" transform="translate(0 109.74)"><tspan x="0" y="0">舟</tspan></text>
    </g>
  </g>
</svg>