<?xml version="1.0" encoding="UTF-8"?>
<svg id="_レイヤー_2" data-name="レイヤー 2" xmlns="http://www.w3.org/2000/svg" viewBox="0 0 242.22 290.5">
  <defs>
    <style>
      .cls-1 {
        fill: none;
        stroke: #273b69;
        stroke-miterlimit: 10;
        stroke-width: 1.21px;
      }
    </style>
  </defs>
  <g id="concept">
    <g>
      <path class="cls-1" d="m13.28,270.24c.74-2.95,1.4-5.74,2.13-8.51,1.45-5.51,2.48-11.19,4.49-16.49,4.18-11.01,12.15-18.68,22.92-23.24,11.51-4.87,23.15-9.41,34.76-14.05,3.36-1.34,5.68-3.85,7.69-6.68.53-.74.71-1.86.73-2.81.08-4.06.12-8.13-.02-12.19-.04-1.19-.44-2.56-1.13-3.52-5.08-6.95-9.78-14.13-13.78-21.76-5.07-9.69-8.9-19.82-11.48-30.48-2.13-8.78-1.96-17.51-.54-26.27.75-4.63,1.72-9.3,3.23-13.73,5.15-15.07,14.66-26.57,28.96-33.87,9.92-5.07,20.55-7,31.62-6.87,7.82.1,15.45,1.59,22.7,4.29,8.22,3.07,15.35,8.04,21.44,14.44,9.73,10.21,14.71,22.58,16.43,36.35.65,5.23.73,10.54.84,15.82.05,2.24-.32,4.52-.81,6.72-1.69,7.65-3.63,15.23-6.81,22.42-5.18,11.74-11.38,22.89-19.28,33.06-.66.85-1.06,2.12-1.09,3.21-.13,4.15-.11,8.32,0,12.47.03,1.02.33,2.24.96,3.01,2.36,2.9,4.97,5.45,8.62,6.87,10.5,4.1,20.88,8.5,31.38,12.6,4.5,1.76,8.62,4.14,12.36,7.08,7.63,5.99,12.74,13.64,14.76,23.3,1.23,5.9,2.86,11.72,4.31,17.57.1.4.15.81.24,1.32-6.73,1.26-13.34,2.52-19.96,3.74-12.38,2.28-24.76,4.53-37.14,6.8-12.43,2.27-24.86,4.54-37.28,6.82-3.34.61-6.68,1.21-10,1.92-2.8.6-5.53.24-8.28-.26-7.84-1.42-15.68-2.79-23.51-4.23-5.01-.92-9.99-1.95-14.99-2.88-10.42-1.94-20.85-3.86-31.28-5.77-10.06-1.84-20.13-3.66-30.19-5.5-.92-.17-1.82-.43-2.97-.71Zm114.76-5.11c.11.04.22.08.33.11.89-1.26,1.73-2.55,2.67-3.77,8.6-11.14,17.23-22.26,25.85-33.39.5-.64.66-1.09-.34-1.44-6.53-2.32-11.33-6.88-15.41-12.25-2.84-3.74-4.8-8.06-5.1-12.71-.4-6.16-.24-12.38-.04-18.56.13-4,1.32-7.79,3.83-11.06,5.98-7.77,11.1-16.05,15.34-24.9,4.06-8.47,7.66-17.06,8.36-26.54.7-9.44-.45-18.67-4.22-27.43-3.31-7.69-8.85-13.27-16.24-17.27-7.41-4.01-15.26-5.68-23.55-5.4-7.49.26-14.61,1.97-21.24,5.7-4.76,2.68-8.66,6.28-11.76,10.66-3.74,5.27-5.66,11.34-6.81,17.68-1.1,6.13-1.69,12.31-.71,18.46,1.28,8,4.06,15.63,7.45,22.94,4.2,9.05,9.3,17.63,15.6,25.4,2.8,3.45,3.89,7.44,4.24,11.61.39,4.7.18,9.44.36,14.16.14,3.69-.49,7.14-1.89,10.6-3.77,9.36-10.81,15.19-19.88,19.42,9.65,12.59,19.37,25.27,29.12,37.97,0-1.21,0-2.37,0-3.53-.05-8.55-.15-17.1-.09-25.65.01-1.6-.24-2.68-1.53-3.77-2.12-1.78-2.71-4.27-2.06-6.95.67-2.75,2.31-4.81,5.23-5.06,3.42-.29,6.87-.29,10.3-.17,3.11.11,5.15,1.84,6.03,4.88.84,2.92-.01,5.89-2.41,7.75-.8.62-1.07,1.28-1.07,2.28.04,8.98.04,17.95.02,26.93,0,1.1-.24,2.2-.37,3.3Z"/>
      <g>
        <path class="cls-1" d="m15.95,127.76c-3.11,0-6.24.22-9.32-.06-3.47-.32-6.07-3.56-6.02-6.95.05-3.63,2.45-6.63,6.12-6.76,6.36-.23,12.74-.2,19.1.05,3.49.14,6.05,3.41,6.03,6.89-.02,3.11-2.96,6.55-6.14,6.76-3.24.21-6.5.05-9.75.05,0,.01,0,.02,0,.03Z"/>
        <path class="cls-1" d="m226.03,113.65c2.88,0,5.77-.16,8.63.05,2.76.2,4.94,1.44,6.31,4.1,1.75,3.41-.24,8.67-4.11,9.45-1.51.31-3.04.7-4.57.73-4.1.1-8.21.08-12.32,0-1.31-.02-2.64-.21-3.9-.54-3.44-.89-5.89-4.15-5.55-7.22.4-3.59,3.31-6.42,7.01-6.59,2.83-.13,5.66-.03,8.49-.03,0,.01,0,.02,0,.03Z"/>
        <path class="cls-1" d="m41.84,208.09c-3.96-.12-6.02-1.67-7.29-4.06-1.29-2.43-1.17-5.1.77-7.14,4.25-4.49,8.59-8.9,13.11-13.12,2.57-2.41,6.17-2.4,8.73-.53,2.1,1.54,3.2,4.82,2.48,7.34-.6,2.1-1.75,3.86-3.31,5.35-3.35,3.2-6.68,6.41-10.06,9.57-1.53,1.43-3.19,2.71-4.43,2.6Z"/>
        <path class="cls-1" d="m201.25,208.02c-1.74.19-3.21-.69-4.46-1.88-4.01-3.79-8.05-7.56-11.89-11.52-1.09-1.12-1.71-2.8-2.24-4.33-.77-2.22.39-5.45,2.23-6.88,2.09-1.63,5.45-1.96,7.6-.64.96.59,1.88,1.28,2.68,2.07,3.41,3.33,6.8,6.69,10.12,10.1,1.61,1.65,3.07,3.37,3.19,5.94.19,3.83-4,7.46-7.23,7.12Z"/>
        <path class="cls-1" d="m41.09,33.41c1.54-.14,2.96.58,4.16,1.71,2.24,2.1,4.43,4.25,6.61,6.41,2.01,2,4.07,3.96,5.93,6.08,2.12,2.41,2.85,5.16,1.32,8.24-1.65,3.33-6.3,4.72-9.47,2.77-.6-.37-1.21-.77-1.7-1.26-4.14-4.14-8.3-8.26-12.35-12.48-1.98-2.06-2.34-4.57-1.2-7.22,1.03-2.39,3.97-4.26,6.71-4.24Z"/>
        <path class="cls-1" d="m189.14,59.44c-2.38-.15-4.48-.99-5.72-3.08-1.48-2.5-1.45-5.14.19-7.62.6-.9,1.33-1.72,2.09-2.49,3.35-3.39,6.75-6.73,10.11-10.12,2.08-2.11,4.36-3.31,7.47-2.51,3.99,1.03,6.41,5.91,4.53,9.55-.53,1.03-1.27,2-2.09,2.83-3.6,3.68-7.24,7.31-10.91,10.92-1.55,1.53-3.35,2.61-5.67,2.51Z"/>
        <path class="cls-1" d="m128.19,15.92c0,2.78.09,5.57-.02,8.35-.16,4.02-3.26,7.06-7.06,7.07-3.64.01-6.89-3.08-6.99-6.99-.14-5.7-.38-11.44.06-17.11.51-6.5,4.89-7.55,10.3-5.99,2.65.76,3.51,3.45,3.66,6.05.16,2.87.04,5.75.04,8.63,0,0,0,0,.01,0Z"/>
        <path class="cls-1" d="m87.69,117.52c-.5-3.9,3-6.9,6.15-6.72,2.43.14,4.73,1.77,5.39,4.29.43,1.67.5,3.44.71,5.16.54,4.51,2.33,8.63,4.01,12.77.85,2.1,2.03,4.07,2.71,6.21.45,1.41.55,3.07.3,4.53-.38,2.25-2.07,3.57-4.25,4.05-2.19.49-4.28-.02-5.55-1.92-1.4-2.1-2.53-4.4-3.65-6.67-3.14-6.37-5.72-16.08-5.82-21.7Z"/>
        <path class="cls-1" d="m94.75,92.03c.04-2.27.96-4.13,2.48-5.49,2.1-1.87,4.35-3.61,6.74-5.09,2.21-1.37,5.46-.79,7.11.86,2.11,2.11,2.61,4.56,1.32,7.08-.35.68-.94,1.28-1.54,1.78-2.06,1.71-4.2,3.33-6.27,5.02-1.83,1.5-3.76,2.31-6.12,1.27-2.41-1.07-3.6-2.93-3.72-5.43Z"/>
      </g>
    </g>
  </g>
</svg>