<?xml version="1.0" encoding="UTF-8"?>
<svg id="_レイヤー_2" data-name="レイヤー 2" xmlns="http://www.w3.org/2000/svg" viewBox="0 0 30 30">
  <defs>
    <style>
      .cls-1 {
        fill: none;
        stroke: #f2f2f2;
        stroke-miterlimit: 10;
        stroke-width: .9px;
      }

      .cls-2 {
        fill: #f2f2f2;
      }
    </style>
  </defs>
  <g id="_フッター" data-name="フッター">
    <g>
      <path class="cls-2" d="m21.23,0h-12.46C3.93,0,0,3.93,0,8.77v12.46c0,4.84,3.93,8.77,8.77,8.77h12.46c4.84,0,8.77-3.93,8.77-8.77v-12.46c0-4.84-3.93-8.77-8.77-8.77Zm5.97,21.23c0,3.29-2.68,5.97-5.97,5.97h-12.46c-3.29,0-5.97-2.68-5.97-5.97v-12.46c0-3.29,2.68-5.97,5.97-5.97h12.46c3.29,0,5.97,2.68,5.97,5.97v12.46Z"/>
      <path class="cls-1" d="m23.02,5.13c-1.03,0-1.87.84-1.87,1.87s.84,1.87,1.87,1.87,1.87-.84,1.87-1.87-.84-1.87-1.87-1.87Z"/>
      <path class="cls-2" d="m15,7.25c-4.28,0-7.75,3.48-7.75,7.75s3.48,7.75,7.75,7.75,7.75-3.48,7.75-7.75-3.48-7.75-7.75-7.75Zm0,12.71c-2.73,0-4.96-2.22-4.96-4.96s2.22-4.96,4.96-4.96,4.96,2.22,4.96,4.96-2.22,4.96-4.96,4.96Z"/>
    </g>
  </g>
</svg>