<?xml version="1.0" encoding="UTF-8"?>
<svg id="_レイヤー_2" data-name="レイヤー 2" xmlns="http://www.w3.org/2000/svg" viewBox="0 0 488.57 228.81">
  <defs>
    <style>
      .cls-1 {
        letter-spacing: .15em;
      }

      .cls-2 {
        letter-spacing: .21em;
      }

      .cls-3 {
        fill: none;
        stroke: #273b69;
        stroke-linecap: square;
        stroke-miterlimit: 10;
        stroke-width: 3px;
      }

      .cls-4, .cls-5 {
        fill: #273b69;
      }

      .cls-6 {
        font-family: MrsEavesOT-Roman, 'Mrs Eaves OT';
        font-size: 55px;
      }

      .cls-7 {
        fill: #f4bd52;
      }

      .cls-5 {
        stroke: #333;
        stroke-width: .67px;
      }
    </style>
  </defs>
  <g id="concept">
    <g>
      <g>
        <line class="cls-3" x1="57.26" y1="16.92" x2="110.54" y2="16.92"/>
        <line class="cls-3" x1="57.26" y1="17.13" x2="47.98" y2="208.71"/>
        <line class="cls-3" x1="110.54" y1="16.92" x2="120.47" y2="221.74"/>
        <line class="cls-3" x1="83.9" y1="16.92" x2="83.9" y2="1.5"/>
        <line class="cls-3" x1="83.9" y1="45.65" x2="83.9" y2="61.07"/>
        <line class="cls-3" x1="83.9" y1="123.73" x2="83.9" y2="139.16"/>
        <line class="cls-3" x1="35.83" y1="92.4" x2="131.98" y2="92.4"/>
      </g>
      <text class="cls-6" transform="translate(146.76 92.4)"><tspan class="cls-1"><tspan class="cls-7" x="0" y="0">O</tspan><tspan class="cls-5" x="50.88" y="0">ZAWA </tspan></tspan><tspan class="cls-5"><tspan class="cls-2" x="0" y="77.12">	</tspan><tspan class="cls-1" x="24.22" y="77.12" xml:space="preserve">   DESIGN</tspan></tspan></text>
      <path class="cls-4" d="m0,205.87c5.15-.02,10.3-.12,15.45-.09,2.98.1,8.82.29,11.59.39,8.62.56,18.46,1.39,26.95,2.81,22.88,3.57,44.95,11.18,68.01,13.39,8.61,1.05,18.07,1.45,26.77,1.82,21.65.4,43.58-.2,64.96-3.76,20.3-3.23,39.88-10.11,60.31-13.23,10.27-1.61,20.62-2.76,30.97-3.14,15.37-.74,31.21-.47,46.56.54,15.49,1.16,30.95,3.64,45.96,7.55,10.01,2.55,19.88,5.41,29.89,7.6,19.98,4.64,40.57,6.23,61.15,6.83-5.15.03-10.3.12-15.45.09-2.98-.1-8.82-.29-11.59-.39-2.17-.15-9.25-.67-11.58-.85-6.19-.63-13.16-1.55-19.21-2.56-24-4.47-47.36-12.03-71.8-13.52-17.73-1.46-35.92-1.56-53.68-.57-10.22.48-20.37,1.6-30.42,3.23-20.3,3.23-39.88,10.1-60.31,13.23-23.03,3.74-46.53,4.1-69.78,3.05-7.45-.39-15.85-1.03-23.22-2.07-20.57-2.35-40.33-9-60.39-13.54-19.98-4.64-40.58-6.23-61.15-6.82h0Z"/>
    </g>
  </g>
</svg>