<?xml version="1.0" encoding="UTF-8"?>
<svg id="_レイヤー_2" data-name="レイヤー 2" xmlns="http://www.w3.org/2000/svg" viewBox="0 0 174.62 75.82">
  <defs>
    <style>
      .cls-1 {
        fill: none;
        stroke: #e5eaee;
        stroke-linecap: square;
        stroke-miterlimit: 10;
      }

      .cls-2 {
        fill: #e5eaee;
      }

      .cls-3 {
        letter-spacing: .15em;
      }

      .cls-4 {
        letter-spacing: .25em;
      }

      .cls-5 {
        fill: #fbb03b;
      }

      .cls-6 {
        font-family: MrsEavesOT-Roman, 'Mrs Eaves OT';
        font-size: 18px;
      }
    </style>
  </defs>
  <g id="_ヘッダー" data-name="ヘッダー">
    <g>
      <g>
        <line class="cls-1" x1="20.47" y1="5.61" x2="39.51" y2="5.61"/>
        <line class="cls-1" x1="20.47" y1="5.68" x2="17.15" y2="69.1"/>
        <line class="cls-1" x1="39.51" y1="5.61" x2="43.06" y2="73.41"/>
        <line class="cls-1" x1="29.99" y1="5.61" x2="29.99" y2=".5"/>
        <line class="cls-1" x1="29.99" y1="15.12" x2="29.99" y2="20.22"/>
        <line class="cls-1" x1="29.99" y1="40.96" x2="29.99" y2="46.07"/>
        <line class="cls-1" x1="12.8" y1="30.59" x2="47.17" y2="30.59"/>
      </g>
      <text class="cls-6" transform="translate(56.74 30.59)"><tspan class="cls-3"><tspan class="cls-5" x="0" y="0">O</tspan><tspan class="cls-2" x="16.65" y="0">ZAWA </tspan></tspan><tspan class="cls-2"><tspan class="cls-4" x="0" y="28">	</tspan><tspan class="cls-3" x="8.66" y="28" xml:space="preserve">   DESIGN</tspan></tspan></text>
      <path class="cls-2" d="m0,68.15c7.38-.17,14.78.13,22.04,1.42,7.22,1.31,14.25,3.35,21.57,3.98,10.86.96,21.97.95,32.76-.65,7.25-1.09,14.25-3.37,21.55-4.38,11-1.52,22.23-1.57,33.26-.32,7.35.81,14.41,3,21.58,4.5,7.13,1.55,14.49,2.09,21.84,2.31-7.38.17-14.77-.13-22.04-1.42-7.22-1.31-14.25-3.34-21.57-3.98-10.86-.96-21.97-.95-32.76.65-7.25,1.09-14.25,3.37-21.55,4.38-9.17,1.33-18.49,1.4-27.73.87-9.26-.49-18.17-3.06-27.11-5.05-7.13-1.55-14.49-2.09-21.84-2.3h0Z"/>
    </g>
  </g>
</svg>