<?xml version="1.0" encoding="UTF-8"?>
<svg id="_レイヤー_2" data-name="レイヤー 2" xmlns="http://www.w3.org/2000/svg" viewBox="0 0 196.01 90.97">
  <defs>
    <style>
      .cls-1 {
        stroke-width: 1.53px;
      }

      .cls-1, .cls-2, .cls-3 {
        fill: none;
        stroke: #e6e6e6;
        stroke-linecap: square;
        stroke-miterlimit: 10;
      }

      .cls-2 {
        stroke-width: 1.68px;
      }

      .cls-4 {
        fill: #e6e6e6;
      }

      .cls-5 {
        fill: #f4bd52;
      }

      .cls-3 {
        stroke-width: 1.43px;
      }
    </style>
  </defs>
  <g id="_レイヤー_1-2" data-name="レイヤー 1">
    <g>
      <g>
        <line class="cls-1" x1="22.74" y1="6.84" x2="43.9" y2="6.84"/>
        <line class="cls-1" x1="22.74" y1="6.92" x2="19.05" y2="83"/>
        <line class="cls-1" x1="43.9" y1="6.84" x2="47.84" y2="88.18"/>
        <line class="cls-3" x1="33.32" y1="6.84" x2="33.32" y2=".71"/>
        <line class="cls-3" x1="33.32" y1="18.25" x2="33.32" y2="24.37"/>
        <line class="cls-3" x1="33.32" y1="49.25" x2="33.32" y2="55.38"/>
        <line class="cls-2" x1="14.23" y1="36.81" x2="52.41" y2="36.81"/>
      </g>
      <g>
        <path class="cls-5" d="m64.28,30.1c0-3.91,3.37-7.12,7.5-7.12s7.48,3.21,7.48,7.12-3.37,7.12-7.48,7.12-7.5-3.21-7.5-7.12Zm12.85,0c0-2.79-1.48-6.24-5.35-6.24s-5.37,3.46-5.37,6.24,1.48,6.22,5.37,6.22,5.35-3.44,5.35-6.22Z"/>
        <path class="cls-4" d="m84.81,36.32l7.57-12.13h-4.13c-2.07,0-2.31.52-2.61,1.68l-.11.45h-.47l.2-2.96h9.57v.27l-7.75,12.38h5.05c2.07,0,2.31-.52,2.61-1.71l.11-.45h.47l-.18,2.99h-10.33v-.52Z"/>
        <path class="cls-4" d="m99,36.37c1.89,0,2-.38,2.7-1.95l4.94-11.43h.29l4.96,11.43c.7,1.57.81,1.95,2.67,1.95v.47h-6.22v-.47c1.86,0,2.29-.47,1.75-1.71l-1.08-2.49h-5.44l-1.08,2.49c-.54,1.21-.11,1.71,1.75,1.71v.47h-5.26v-.47Zm9.64-5.03l-2.36-5.41-2.34,5.41h4.69Z"/>
        <path class="cls-4" d="m118.9,25.79c-.52-1.66-.81-1.95-2.67-1.95v-.47h6.29v.47c-1.89,0-2.16.45-1.77,1.71l2.47,7.75,3.14-9.93h.31l3.14,9.91,2.45-7.73c.38-1.24.04-1.71-1.57-1.71v-.47h5.05v.47c-1.86,0-2.2.45-2.67,1.95l-3.64,11.43h-.29l-3.14-9.95-3.17,9.95h-.29l-3.64-11.43Z"/>
        <path class="cls-4" d="m137.41,36.37c1.89,0,2-.38,2.7-1.95l4.94-11.43h.29l4.96,11.43c.7,1.57.81,1.95,2.67,1.95v.47h-6.22v-.47c1.86,0,2.29-.47,1.75-1.71l-1.08-2.49h-5.44l-1.08,2.49c-.54,1.21-.11,1.71,1.75,1.71v.47h-5.26v-.47Zm9.64-5.03l-2.36-5.41-2.34,5.41h4.69Z"/>
        <path class="cls-4" d="m99.34,66.99c1.86,0,2.13-.38,2.13-2.63v-7.3c0-2.25-.27-2.61-2.13-2.61v-.47h6.09c5.23,0,7.5,3.03,7.5,6.74s-2.27,6.74-7.5,6.74h-6.09v-.47Zm6.11-.36c4.38,0,5.32-3.28,5.32-5.91s-.94-5.91-5.32-5.91h-2.18v9.21c0,2.25.25,2.61,2.09,2.61h.09Z"/>
        <path class="cls-4" d="m118.73,66.99c1.86,0,2.13-.38,2.13-2.63v-7.3c0-2.25-.27-2.61-2.13-2.61v-.47h10.24l.2,2.96h-.47l-.11-.45c-.31-1.17-.54-1.68-2.61-1.68h-3.32v5.1h1.12c2.25,0,2.61-.27,2.61-2.16h.47v5.14h-.47c0-1.89-.36-2.16-2.61-2.16h-1.12v3.28c0,2.25.27,2.61,2.13,2.61h1.93c2.07,0,2.31-.52,2.61-1.71l.11-.45h.47l-.18,2.99h-11.01v-.47Z"/>
        <path class="cls-4" d="m135.86,62.91h.47s.02,4.04,4.13,4.04c1.59,0,2.81-1.03,2.81-2.47,0-1.03-1.03-1.91-2.58-2.72l-2.16-1.1c-1.3-.67-2.49-2-2.49-3.71,0-1.86,1.55-3.35,3.73-3.35,1.33,0,2.07.43,2.74.92.27-.22.54-.56.65-1.03h.45v4.94h-.47c-.16-1.8-.83-3.93-3.44-3.93-1.26,0-2.18.88-2.18,2s.79,1.77,2.74,2.79l2.13,1.1c1.73.88,2.36,2.18,2.36,3.41,0,2.45-1.98,4.04-4.29,4.04-1.71,0-2.79-.9-3.5-1.06-.27.22-.54.56-.65,1.06h-.45v-4.94Z"/>
        <path class="cls-4" d="m150.21,66.99c1.86,0,2.13-.38,2.13-2.63v-7.3c0-2.25-.27-2.61-2.13-2.61v-.47h6.06v.47c-1.86,0-2.13.36-2.13,2.61v7.3c0,2.25.27,2.63,2.13,2.63v.47h-6.06v-.47Z"/>
        <path class="cls-4" d="m162.09,60.73c0-3.91,3.1-7.12,6.9-7.12,1.57,0,3.03.7,4.18,1.91.29-.22.65-.72.76-1.28h.45v4.94h-.45c-.61-2.92-2.36-4.69-4.87-4.69-3.59,0-4.9,3.46-4.9,6.24s1.17,6.15,5.32,6.15c1.95,0,3.71-1.06,3.71-3.08,0-.97-.56-1.46-2.11-1.46v-.45h5.88v.45c-1.86,0-2.13.38-2.13,2.63v1.71c-2.49,0-3.5,1.17-5.84,1.17-3.8,0-6.9-3.21-6.9-7.12Z"/>
        <path class="cls-4" d="m184.19,56.55v7.82c0,2.25.29,2.63,2.16,2.63v.47h-5.12v-.47c1.86,0,2.13-.38,2.13-2.63v-7.3c0-2.25-.27-2.61-2.13-2.61v-.47h3.17l8.62,10.69v-7.61c0-2.25-.27-2.61-2.13-2.61v-.47h5.12v.47c-1.86,0-2.16.36-2.16,2.61v10.78h-.52l-9.14-11.3Z"/>
      </g>
      <path class="cls-4" d="m0,81.87c8.19-.18,16.41.19,24.48,1.76,8.02,1.58,15.83,4.03,23.97,4.8,12.08,1.17,24.43,1.15,36.43-.76,8.06-1.31,15.83-4.04,23.95-5.26,12.21-1.82,24.69-1.89,36.93-.4,8.16.96,16.01,3.58,23.98,5.37,7.93,1.84,16.11,2.48,24.28,2.71-8.19.18-16.41-.19-24.48-1.75-8.02-1.59-15.83-4.03-23.97-4.8-12.08-1.17-24.42-1.16-36.43.76-8.06,1.31-15.83,4.03-23.95,5.25-10.18,1.6-20.52,1.68-30.79,1.05-10.29-.57-20.18-3.64-30.12-6.02-7.94-1.84-16.11-2.47-24.28-2.71h0Z"/>
    </g>
  </g>
</svg>