<?xml version="1.0" encoding="UTF-8"?>
<svg id="_レイヤー_2" data-name="レイヤー 2" xmlns="http://www.w3.org/2000/svg" viewBox="0 0 150.86 185.36">
  <defs>
    <style>
      .cls-1 {
        fill: none;
        stroke: #273b69;
        stroke-linecap: round;
        stroke-linejoin: round;
        stroke-width: .86px;
      }
    </style>
  </defs>
  <g id="_サービス" data-name="サービス">
    <g>
      <path class="cls-1" d="m122.51,141.35c-.83-1.24-1.63-2.43-2.43-3.63-1.17-1.75-2.33-3.51-3.54-5.23-.43-.61-.17-.89.29-1.24,4.27-3.26,8.12-6.99,11.83-10.85,1.71-1.78,2.13-5.47.9-7.6-.94-1.62-2.61-2.01-4.2-2.33-1.64-.33-3.34-.37-5.02-.44-3.06-.14-6.14-.18-9.1-1.13-7.04-2.26-11.79-6.78-13.65-14.07-1.79-7,1.06-14.05,7.37-18.56,3.44-2.45,7.33-3.51,11.42-4.11,3.95-.58,7.96-.86,11.77-2.17,3.09-1.06,6.24-2.03,8.64-4.47,2.33-2.37,2.79-4.43,1.45-7.92-1.11-2.9-2.99-5.39-5.14-7.58-2.1-2.14-4.46-4.02-6.72-6.01-2.18-1.91-4.79-3.12-7.37-4.33-3.97-1.86-8-3.55-12.36-4.37-7.37-1.39-14.79-2.11-22.26-1.46-7.6.66-15.04,2.19-22.14,5.09-1.17.48-2.36.89-3.56,1.26-.25.08-.78-.09-.86-.28-1.35-3.2-2.99-6.23-4.96-9.09-.41-.6.18-.73.53-.86,3.01-1.13,5.99-2.34,9.05-3.32,6.08-1.96,12.32-3.17,18.64-4.04,5.98-.83,11.97-.81,17.92-.24,7.32.7,14.43,2.44,21.27,5.27,7.76,3.21,14.6,7.78,20.4,13.82,3.22,3.36,6.23,6.96,8.06,11.34,1.93,4.64,2.3,9.29.56,14.14-1.76,4.91-5.31,8.08-9.56,10.6-5.37,3.18-11.36,4.49-17.45,5.41-2.38.36-4.77.63-7.12,1.13-1.27.27-2.52.82-3.66,1.47-2.5,1.43-3.8,5.32-2.43,7.83,1.15,2.1,2.84,3.79,5.32,4.45,2.17.58,4.35.8,6.6.73,4.65-.15,9.12.59,13.1,3.21,3.9,2.56,6.73,5.92,7.55,10.65.43,2.48.17,4.96-.3,7.44-.65,3.41-2.41,6.16-4.69,8.69-3.47,3.83-7.23,7.32-11.34,10.44-.95.72-1.84,1.54-2.83,2.37Z"/>
      <path class="cls-1" d="m80.22,90.86c3.65,5.5,7.26,10.93,10.88,16.36,3.82,5.73,7.65,11.46,11.47,17.2,8.01,12.02,16.02,24.03,24.02,36.06,2.18,3.28,4.4,6.54,6.48,9.89,1.26,2.02,2.25,4.24,2.3,6.67.03,1.45-.09,2.98-.57,4.33-.98,2.78-3.55,3.99-6.77,3.43-3-.53-5.45-2.1-7.38-4.38-2.43-2.87-4.71-5.87-7.01-8.84-6.19-8-12.36-16.01-18.54-24.02-9.76-12.66-19.53-25.31-29.29-37.97-1.21-1.57-2.41-3.16-3.69-4.68-.5-.59-.37-.87.19-1.26,4.76-3.37,9.52-6.76,14.27-10.15,1.22-.87,2.43-1.75,3.65-2.63Z"/>
      <path class="cls-1" d="m14.55,60.65c2.74,2.75,5.47,5.49,8.27,8.29-.5.79-1.07,1.69-1.64,2.6-4.79,7.63-7.81,15.91-8.88,24.84-.85,7.12-.04,14.15,2.54,20.86,3.42,8.9,9.08,16.07,17.05,21.39,6.18,4.12,12.91,6.95,20.18,8.41,5.11,1.03,10.31,1.51,15.52,1.35,5.53-.16,11.05-.64,16.47-1.87.8-.18,1.28.05,1.79.76,1.92,2.66,3.96,5.23,5.95,7.84.18.24.35.48.62.84-.47.2-.85.41-1.26.53-4.61,1.42-9.34,2.24-14.13,2.73-3.11.31-6.23.69-9.35.8-2.58.09-5.18,0-7.74-.29-3.52-.39-7.05-.85-10.5-1.6-5.95-1.28-11.66-3.3-17.14-6.01-4.87-2.41-9.15-5.61-13.28-9.1-5.03-4.25-8.81-9.46-11.96-15.14-3.02-5.44-4.76-11.35-5.75-17.47-.44-2.76-.85-5.55-.87-8.33-.01-3.06.32-6.13.73-9.17.78-5.8,2.31-11.43,4.62-16.81,1.91-4.46,4.21-8.71,6.94-12.74.62-.91,1.24-1.83,1.84-2.72Z"/>
      <path class="cls-1" d="m53.54,52.36c-.18,1.73-.31,3.47-.57,5.19-.08.49-.44,1.07-.85,1.36-3.13,2.25-6.3,4.44-9.45,6.65-.76.54-1.52,1.08-2.24,1.67-.64.52-1.31.63-2.1.48-6.93-1.3-12.44-4.91-16.91-10.26-4.2-5.03-7.47-10.64-9.86-16.72-1.65-4.19-2.73-8.57-3.64-13-.72-3.53-1.08-7.09-1.01-10.67.08-4.33.95-8.55,2.68-12.53.58-1.33,1.53-2.51,2.35-3.72.27-.39.58-.62,1.05-.03,1.92,2.39,3.76,4.86,5.9,7.05,4.61,4.72,9.68,8.94,14.83,13.06,3.98,3.19,7.46,6.9,10.75,10.81,2.79,3.33,5.23,6.85,6.72,10.94,1.14,3.13,2.25,6.3,2.35,9.73Zm-5.11-.42c.06-4.3-1.09-7.92-2.82-11.36-1.86-3.69-4.53-6.82-7.39-9.76-1.01-1.04-2.42-1.79-3.77-2.41-1.62-.75-2.46-.01-2.31,1.79.01.12.02.24.06.35.53,1.47,1.08,2.92,1.58,4.4.33.96.66,1.93.86,2.92.08.41-.13,1.24-.34,1.28-.53.11-1.15-.07-1.71-.21-.24-.06-.45-.3-.64-.49-1.05-1.03-2.09-2.08-3.15-3.11-.6-.59-1.2-1.18-1.84-1.72-.56-.47-1.22-.91-1.97-.45-.75.46-.75,1.26-.65,2.03.05.41.18.82.32,1.21.4,1.07.88,2.11,1.23,3.2.33,1.02.62,2.08.72,3.14.04.46-.31,1.2-.7,1.4-.39.19-1.16.02-1.55-.28-1.13-.85-2.11-1.88-3.22-2.76-.74-.59-1.55-1.13-2.4-1.55-.75-.37-1.38,0-1.58.8-.1.43-.16.92-.04,1.34.36,1.3.63,2.67,1.28,3.84,1.92,3.47,3.87,6.93,6.64,9.85,2.99,3.16,6.45,5.45,10.72,6.49.77.19,1.36.12,2-.36,2.91-2.13,5.81-4.31,8.82-6.3,1.42-.94,2.19-1.95,1.84-3.29Z"/>
      <path class="cls-1" d="m58.01,99.61c-1.27-1.67-2.52-3.29-3.75-4.91-1.69-2.23-3.35-4.48-5.06-6.7-1.52-1.97-2.7-4.12-3.6-6.43-.78-1.99-.94-4.04-.57-6.12.3-1.64,1.04-3.08,2.44-4.09,2.15-1.55,4.24-3.18,6.48-4.59,2.01-1.27,4.25-1.21,6.41-.28,2.68,1.16,5.12,2.74,6.83,5.16,3,4.25,5.9,8.57,8.83,12.87,1.03,1.5,1.04,1.53-.46,2.6-5.44,3.88-10.88,7.74-16.33,11.6-.37.26-.73.52-1.22.88Z"/>
      <path class="cls-1" d="m118.16,66.75c-6.01.27-10.32-4.99-10.36-10.01-.03-4.6,3.66-10.15,9.95-10.2,6.09-.05,10.08,4.41,10.38,9.6.31,5.45-4.13,10.67-9.97,10.61Z"/>
      <path class="cls-1" d="m93.42,49.26c.39,4.6-3.92,9.08-9.17,9.59-3.68.36-9.98-2.81-10.11-9.17-.12-5.64,3.35-9.59,8.82-10.14,5.25-.53,10.52,3.62,10.46,9.71Z"/>
      <path class="cls-1" d="m41.15,85.72c.03,4.76-4.03,8.95-8.69,8.97-4.83.02-8.94-4.01-8.96-8.78-.02-4.66,4-8.76,8.64-8.8,4.83-.04,8.98,3.92,9,8.61Z"/>
      <path class="cls-1" d="m34.87,126.38c-4.87,0-8.42-3.88-8.34-8.27.09-4.74,3.94-8.44,8.54-8.32,4.16.11,8.12,4.18,8.03,8.26-.1,4.42-4.06,8.43-8.23,8.33Z"/>
    </g>
  </g>
</svg>