<?xml version="1.0" encoding="UTF-8"?>
<svg id="_レイヤー_2" data-name="レイヤー 2" xmlns="http://www.w3.org/2000/svg" viewBox="0 0 229.72 140.88">
  <defs>
    <style>
      .cls-1 {
        fill: none;
        stroke: #273b69;
        stroke-linecap: round;
        stroke-linejoin: round;
      }
    </style>
  </defs>
  <g id="_サービス" data-name="サービス">
    <g>
      <path class="cls-1" d="m113.39.5c29.5,0,59.01,0,88.51,0,4.21,0,8.42.17,12.38,1.87,7.86,3.37,12.72,9.27,14.55,17.6.34,1.56.36,3.21.36,4.81.02,27.61.04,55.23,0,82.84-.01,6.57-1.25,12.92-4.94,18.53-2.66,4.04-5.94,7.47-10.22,9.92-5.49,3.14-11.42,4.3-17.63,4.3-54.49.02-108.97.03-163.46-.02-5.86,0-11.54-.94-16.77-3.95-6.63-3.81-11.21-9.2-13.75-16.42-1.3-3.69-1.9-7.44-1.9-11.32,0-26.2-.02-52.4,0-78.59,0-3.1-.07-6.23.24-9.3.61-5.92,3.62-10.61,8.05-14.46C12.91,2.74,17.7.92,23.11.71c2.95-.12,5.9-.2,8.85-.2,27.14-.01,54.29,0,81.43,0Zm2.52,11.6v.05c-3.19,0-6.37,0-9.56,0-22.94-.02-45.87-.04-68.81-.05-4.8,0-9.6-.06-14.39.15-3.41.15-6.35,1.42-8.45,4.4-1.74,2.47-2.44,5.13-2.44,8.08.01,10.19,0,20.38,0,30.57,0,18.33.02,36.67,0,55,0,7.15,3.63,12.18,9.35,15.92,3.28,2.15,7.06,2.48,10.88,2.48,36.2,0,72.39-.01,108.59-.02,19.24,0,38.48.01,57.72-.02,4.43,0,8.37-1.45,11.8-4.33,4.39-3.69,6.69-8.29,6.67-14.07-.04-8.5,0-16.99,0-25.49,0-19.55,0-39.1-.02-58.66,0-1.84-.02-3.72-.35-5.52-.56-3.06-3.45-7.4-8.96-8.09-3.07-.38-6.19-.38-9.29-.38-27.58-.03-55.16-.02-82.74-.02Z"/>
      <path class="cls-1" d="m173.9,109.86H55.61c0-6.33-.01-12.61.04-18.89,0-.26.54-.73.85-.75,1.41-.08,2.83-.04,4.25-.04,36.19,0,72.39,0,108.58,0,1.1,0,2.21.07,3.3,0,.89-.05,1.26.16,1.26,1.14-.03,4.72,0,9.44.02,14.16,0,1.41,0,2.82,0,4.37Z"/>
      <path class="cls-1" d="m174.07,80.12V31.03h29.33v49.1h-29.33Z"/>
      <path class="cls-1" d="m26.1,50.61v-19.57h19.59v19.57h-19.59Z"/>
      <path class="cls-1" d="m114.88,31h19.58v19.6h-19.58v-19.6Z"/>
      <path class="cls-1" d="m144.44,50.62v-19.56h19.44c.05.38.15.83.15,1.28,0,5.7-.02,11.39.01,17.09,0,.95-.25,1.29-1.25,1.28-5.77-.04-11.55-.02-17.33-.02-.31,0-.61-.03-1.02-.06Z"/>
      <path class="cls-1" d="m75.28,31.03c0,.84,0,1.58,0,2.31,0,5.39,0,10.77,0,16.16,0,.69-.02,1.19-.97,1.18-6.02-.04-12.03-.02-18.05-.03-.11,0-.23-.04-.51-.09v-19.55h19.53Z"/>
      <path class="cls-1" d="m26.11,90.2c1.74,0,3.42,0,5.1,0,4.48,0,8.96.03,13.44,0,.87,0,1.14.25,1.14,1.14-.03,5.77-.03,11.55,0,17.32,0,.96-.27,1.28-1.27,1.27-5.46-.05-10.92-.03-16.38-.03-.65,0-1.31,0-2.02,0v-19.69Z"/>
      <path class="cls-1" d="m183.74,109.89c0-2.37,0-4.6,0-6.84,0-3.93.02-7.86-.01-11.79,0-.74.18-1.07.98-1.07,5.89.04,11.79.05,17.69.08.31,0,.62.08,1.01.13.02.37.07.71.07,1.05,0,5.66-.02,11.32.02,16.98,0,1.1-.26,1.49-1.44,1.48-6.05-.06-12.1-.03-18.32-.03Z"/>
      <path class="cls-1" d="m104.73,50.63h-19.4c-.03-.45-.07-.87-.07-1.29,0-5.74.03-11.48-.01-17.21,0-.93.25-1.21,1.19-1.2,5.74.04,11.48.03,17.22.02.68,0,1.21-.02,1.2.95-.03,6.05-.02,12.1-.02,18.16,0,.15-.05.3-.1.57Z"/>
      <path class="cls-1" d="m144.38,80.17v-19.52h19.56v19.52h-19.56Z"/>
      <path class="cls-1" d="m26.1,80.02v-19.28c.42-.02.83-.06,1.25-.06,5.74,0,11.48.01,17.22-.03.91,0,1.23.23,1.22,1.18-.04,5.78-.03,11.56,0,17.34,0,.79-.2,1.12-1.05,1.11-5.9-.06-11.79-.08-17.69-.13-.3,0-.61-.08-.95-.13Z"/>
      <path class="cls-1" d="m114.87,60.75c.41-.03.76-.07,1.1-.07,5.77,0,11.55.02,17.32-.02.99,0,1.26.3,1.25,1.28-.04,5.66-.03,11.31.02,16.97,0,.99-.18,1.37-1.28,1.36-5.7-.08-11.39-.09-17.09-.08-1.02,0-1.43-.23-1.41-1.37.06-5.62.03-11.23.03-16.85,0-.38.04-.76.06-1.21Z"/>
      <path class="cls-1" d="m75.23,60.77v19.37h-19.6c0-.78,0-1.55,0-2.32-.01-5.43-.02-10.85-.05-16.28,0-.6.09-.96.82-.96,6.13.04,12.27.06,18.4.09.11,0,.22.05.43.1Z"/>
      <path class="cls-1" d="m85.33,60.68h19.41v19.58h-19.41v-19.58Z"/>
    </g>
  </g>
</svg>