<?xml version="1.0" encoding="UTF-8"?>
<svg id="_レイヤー_2" data-name="レイヤー 2" xmlns="http://www.w3.org/2000/svg" viewBox="0 0 247.01 722.94">
  <defs>
    <style>
      .cls-1 {
        stroke-miterlimit: 10;
        stroke-width: .92px;
      }

      .cls-1, .cls-2 {
        fill: none;
        stroke: #f2f2f2;
      }

      .cls-2 {
        stroke-linecap: round;
        stroke-linejoin: round;
      }
    </style>
  </defs>
  <g id="_ヘッダー" data-name="ヘッダー">
    <g>
      <polyline class="cls-2" points="246.51 722.44 178.92 147.99 184.07 147.99 197.14 129.93 46.6 129.93 59.68 147.99 64.7 147.78 .5 722.44"/>
      <polygon class="cls-2" points="197.14 40.16 46.6 40.16 59.68 58.21 184.07 58.21 197.14 40.16"/>
      <rect class="cls-2" x="116.51" y="69.9" width="10.73" height="46"/>
      <rect class="cls-2" x="70.51" y="69.9" width="10.73" height="46"/>
      <rect class="cls-2" x="162.51" y="69.9" width="10.73" height="46"/>
      <path class="cls-2" d="m140.83,294.38v-30.1c0-10.16-8.24-18.4-18.4-18.4h-1.11c-10.16,0-18.4,8.24-18.4,18.4v30.1h37.91Z"/>
      <path class="cls-2" d="m102.92,423.27h37.91v-30.1c0-10.16-8.24-18.4-18.4-18.4h-1.11c-10.16,0-18.4,8.24-18.4,18.4v30.1Z"/>
      <path class="cls-1" d="m140.01,40.09L125.37.46s0,0,0,0h-7.77s0,0,0,0l-13.85,39.62s0,.07.01.07h36.26s.02-.03,0-.07Z"/>
    </g>
  </g>
</svg>