<?xml version="1.0" encoding="UTF-8"?>
<svg id="_レイヤー_2" data-name="レイヤー 2" xmlns="http://www.w3.org/2000/svg" viewBox="0 0 289.67 121.67">
  <defs>
    <style>
      .cls-1 {
        stroke-miterlimit: 10;
      }

      .cls-1, .cls-2 {
        fill: none;
        stroke: #273b69;
      }

      .cls-3 {
        fill: #687696;
      }

      .cls-2 {
        stroke-linecap: round;
        stroke-linejoin: round;
      }
    </style>
  </defs>
  <g id="_レイヤー_1-2" data-name="レイヤー 1">
    <g>
      <path class="cls-1" d="m172.05,66.31c-.21-.96-.7-1.86-1.47-2.49l-18.24-14.96c-1.72-1.41-4.11-1.01-5.34.9-1.23,1.91-.83,4.6.89,6.01l10.04,8.24h-23.45c-2.28,0-4.13,1.85-4.13,4.13s1.85,4.13,4.13,4.13h23.89l-9.5,9.5c-1.6,1.6-1.6,4.2,0,5.81,1.6,1.6,4.2,1.6,5.81,0l16.59-16.59c1.27-1.27,1.52-3.16.77-4.69Z"/>
      <g>
        <line class="cls-2" x1="245.02" y1="14.03" x2="280.34" y2="14.03"/>
        <line class="cls-2" x1="245.02" y1="14.15" x2="245.02" y2="121.17"/>
        <line class="cls-2" x1="280.34" y1="14.03" x2="280.34" y2="121.06"/>
        <line class="cls-2" x1="262.68" y1="13.88" x2="262.68" y2=".5"/>
        <line class="cls-2" x1="262.68" y1="30.97" x2="262.68" y2="37.65"/>
        <line class="cls-2" x1="262.68" y1="74.42" x2="262.68" y2="81.11"/>
        <line class="cls-2" x1="236.19" y1="56.04" x2="289.17" y2="56.04"/>
      </g>
      <path class="cls-3" d="m63.34,96.43c-.58,8.91-.93,14.69-1.27,17.01-.35,2.43-1.16,3.59-2.43,3.47-1.16-.23-2.89-1.04-5.32-2.55-2.31-1.5-4.86-2.78-7.52-3.82-2.78-1.04-3.59-1.97-2.31-2.66,1.16-.58,3.12-.58,5.67-.23,2.66.46,5.09.93,7.52,1.5.58-6.48,1.04-13.19,1.16-20.25.12-6.83.12-15.39,0-25.11-10.18,3.7-19.32,7.29-27.54,10.53-1.85,16.66-4.17,27.54-6.6,32.4-2.66,4.86-4.4,7.29-5.44,7.17-1.16-.12-1.97-.35-2.43-.69-.46-.35.12-2.2,1.62-5.79,1.5-3.47,2.66-6.94,3.7-10.18,1.04-3.36,2.2-10.41,3.47-21.17-16.08,4.86-24.53,6.36-25.22,4.4-.69-1.97-.46-3.12.58-3.7.93-.58,2.43-.93,4.63-1.16,1.97-.23,8.68-2.08,19.79-5.55.35-9.6.58-16.78.46-21.64-.12-4.86-.58-7.41-1.62-7.64-1.04-.23-1.5-1.39-1.16-3.59.35-2.2,1.39-3.01,3.24-2.55,1.85.46,3.59,1.74,5.09,3.82,2.89-3.36,5.55-6.71,8.1-10.07,2.43-3.36,3.93-6.02,4.4-7.75.46-1.62.35-2.89-.46-3.7-.81-.81-.69-1.85.58-3.12,1.04-1.27,2.43-1.62,4.05-.81,1.5.81,2.31,1.85,2.2,2.78-.12,1.16-.58,3.01-1.39,5.32-1.04,2.43-4.28,7.64-9.95,15.39,6.36-2.66,11.57-4.63,15.39-5.79,3.7-1.04,6.36-1.5,8.22-1.27,1.74.23,2.55,2.43,2.2,6.71s-.69,11.11-.81,20.25c8.56-3.24,14.58-5.67,18.4-6.94,3.59-1.16,5.9-1.04,6.94.46,1.04,1.74-7.17,5.67-24.88,12.15-.35,14-.58,25.46-1.04,34.37Zm-4.17-61.21c-7.29,1.74-13.19,3.7-17.59,6.02-4.4,2.43-7.29,3.59-8.68,3.82-1.62,7.41-2.2,14.93-1.74,23.03,2.55-1.04,11.69-4.4,27.65-10.18,0-10.99.12-18.4.35-22.68Zm-10.53,15.85c1.74,1.97,2.66,3.24,2.78,4.28,0,1.04-1.04,1.5-3.01,1.39-2.2-.12-4.17-1.27-6.36-3.36-2.2-2.08-3.7-3.47-4.63-4.17-1.04-.69-1.16-1.85-.46-3.59.58-1.62,2.2-1.5,4.74.35,2.89,1.5,5.09,3.24,6.94,5.09Zm-8.56,47.09c-1.74-1.27-2.2-3.12-1.27-5.32.81-2.08,1.27-3.59,1.62-4.4.35-.58.58-2.55.81-5.79.12-3.36-.12-5.09-.69-5.67-.58-.46-.46-1.27.35-2.55.81-1.16,1.97-1.74,3.7-1.62,1.62.12,2.43.93,2.55,2.66.12,1.74-.12,4.17-.69,7.52-.58,3.24-.81,4.86-.81,4.86,0,0-.23,2.43-.58,7.29-1.39,3.47-3.12,4.51-4.98,3.01Z"/>
    </g>
  </g>
</svg>