<?xml version="1.0" encoding="UTF-8"?>
<svg id="_レイヤー_2" data-name="レイヤー 2" xmlns="http://www.w3.org/2000/svg" xmlns:xlink="http://www.w3.org/1999/xlink" viewBox="0 0 200 70">
  <defs>
    <style>
      .cls-1 {
        fill: none;
        filter: url(#drop-shadow-1);
      }

      .cls-2 {
        fill: #fbc21c;
      }

      .cls-3 {
        fill: #273b69;
      }
    </style>
    <filter id="drop-shadow-1" filterUnits="userSpaceOnUse">
      <feOffset dx="3" dy="3"/>
      <feGaussianBlur result="blur" stdDeviation="5"/>
      <feFlood flood-color="#333" flood-opacity=".3"/>
      <feComposite in2="blur" operator="in"/>
      <feComposite in="SourceGraphic"/>
    </filter>
  </defs>
  <g id="_レイヤー_1-2" data-name="レイヤー 1">
    <g>
      <g class="cls-1">
        <path class="cls-2" d="m.82,35.98l198.02,34.01c.61.1,1.16-.36,1.16-.98V.99c0-.61-.55-1.08-1.16-.98L.82,34.02c-1.1.19-1.1,1.76,0,1.95Z"/>
      </g>
      <g>
        <path class="cls-3" d="m99.05,39.06c-.25.4-.65.88-1.19,1.22-.49.31-1.12.52-1.91.52-1.13,0-1.95-.36-2.54-.94-.85-.85-1.19-2.07-1.19-3.37s.4-2.25,1.01-2.97c.74-.86,1.71-1.22,2.81-1.22.87,0,1.67.23,2.18.67.34.29.59.63.59,1.03,0,.32-.16.56-.47.56-.38,0-.5-.2-.86-.9-.23-.47-.67-.79-1.42-.79-.68,0-1.37.32-1.84,1.04-.45.68-.68,1.39-.68,2.61,0,1.1.21,1.98.61,2.57.49.72,1.21,1.1,2.04,1.1.52,0,.99-.13,1.42-.4.36-.23.68-.58.99-1.03l.45.29Z"/>
        <path class="cls-3" d="m101.31,33.28c.7-.65,1.53-.97,2.68-.97s2.03.32,2.74.99c.7.7,1.1,1.8,1.1,3.22,0,1.62-.41,2.68-1.1,3.35-.72.65-1.6.94-2.74.94s-1.95-.27-2.67-.9c-.7-.67-1.13-1.75-1.13-3.39,0-1.42.39-2.54,1.12-3.24Zm.94,6.21c.42.47.99.76,1.75.76s1.33-.29,1.75-.76c.45-.58.76-1.49.76-2.95s-.25-2.29-.74-2.92c-.41-.5-1.03-.76-1.78-.76-.72,0-1.31.25-1.75.76-.49.63-.74,1.53-.74,2.92,0,1.46.31,2.38.76,2.95Z"/>
        <path class="cls-3" d="m116.22,39c0,1.01.07,1.15.88,1.15v.45h-3.04v-.45c.86,0,.92-.11.92-1.19v-4.02c0-.7-.09-1.28-.43-1.64-.23-.23-.56-.36-1.04-.36-.76,0-1.57.68-2.29,1.67v4.34c0,1.08.02,1.19.87,1.19v.45h-3.15v-.45c.97,0,1.04-.11,1.04-1.19v-4.38c0-1.04-.09-1.17-1.04-1.15v-.4c.79-.13,1.4-.31,2-.74l.18.11.07,1.39h.04c.72-.92,1.64-1.49,2.63-1.49.77,0,1.33.2,1.73.58.41.4.65,1.04.65,2v4.12Z"/>
        <path class="cls-3" d="m117.87,32.67c1.13-.11,1.53-.81,1.84-2.43h.45v2.27h1.91v.58h-1.91v5.82c0,.85.25,1.28.88,1.28.41,0,.76-.14,1.12-.41l.29.4c-.47.41-1.03.65-1.76.65-.92,0-1.77-.43-1.77-1.84v-5.89h-1.04v-.41Z"/>
        <path class="cls-3" d="m129.19,39.02c0,.81.18,1.17.54,1.17.18,0,.34-.04.49-.13l.11.41c-.31.14-.63.25-1.1.25-.63,0-1.01-.32-1.17-.92h-.05c-.61.58-1.33.99-2.52.99-.58,0-1.19-.16-1.66-.54-.43-.34-.72-.86-.72-1.55,0-.83.32-1.48,1.12-2,.61-.41,1.51-.77,2.66-1.03l1.06-.25v-.77c0-.41-.05-.95-.29-1.26-.27-.36-.7-.54-1.3-.54-.54,0-.9.16-1.22.41-.23.18-.4.49-.56.88-.09.25-.25.43-.63.43-.34,0-.5-.25-.5-.52,0-.43.36-.92.94-1.26.47-.27,1.1-.5,2.05-.5,1.08,0,1.71.2,2.16.7.47.52.59,1.01.59,1.8v4.21Zm-1.24-3.02c-.77.22-1.66.47-2.32.88-.7.38-1.21.85-1.21,1.67,0,.47.13.86.4,1.13.27.25.65.43,1.19.43.88,0,1.49-.49,1.94-.94v-3.19Z"/>
        <path class="cls-3" d="m138.03,39.06c-.25.4-.65.88-1.19,1.22-.49.31-1.12.52-1.91.52-1.13,0-1.95-.36-2.54-.94-.85-.85-1.19-2.07-1.19-3.37s.4-2.25,1.01-2.97c.74-.86,1.71-1.22,2.81-1.22.87,0,1.67.23,2.18.67.34.29.59.63.59,1.03,0,.32-.16.56-.47.56-.38,0-.5-.2-.86-.9-.23-.47-.67-.79-1.42-.79-.68,0-1.37.32-1.84,1.04-.45.68-.68,1.39-.68,2.61,0,1.1.21,1.98.61,2.57.49.72,1.21,1.1,2.04,1.1.52,0,.99-.13,1.42-.4.36-.23.68-.58.99-1.03l.45.29Z"/>
        <path class="cls-3" d="m138.86,32.67c1.13-.11,1.53-.81,1.84-2.43h.45v2.27h1.91v.58h-1.91v5.82c0,.85.25,1.28.88,1.28.41,0,.76-.14,1.12-.41l.29.4c-.47.41-1.03.65-1.76.65-.92,0-1.77-.43-1.77-1.84v-5.89h-1.04v-.41Z"/>
        <path class="cls-3" d="m160.64,39.06c0,.99.11,1.1.92,1.1v.45h-3.1v-.45c.83,0,.94-.13.94-1.01v-3.89c0-.68-.09-1.24-.31-1.64-.23-.43-.63-.67-1.17-.67-.9,0-1.64.65-2.21,1.55v4.56c0,1.01.07,1.1.94,1.1v.45h-3.1v-.45c.86,0,.92-.11.92-1.01v-3.85c0-.81-.07-1.31-.34-1.76-.22-.34-.6-.58-1.12-.58-.74,0-1.42.56-2.23,1.57v4.52c0,1.01.07,1.12.96,1.12v.45h-3.28v-.45c1.01,0,1.08-.13,1.08-1.19v-4.39c0-1.03-.09-1.15-1.08-1.13v-.4c.83-.13,1.44-.31,2.05-.74l.16.11.07,1.3h.02c.68-.72,1.55-1.4,2.57-1.4.74,0,1.24.2,1.6.49.29.27.51.59.61.99h.05c.68-.79,1.53-1.48,2.7-1.48.63,0,1.28.18,1.71.67.41.43.63,1.08.63,2.18v3.91Z"/>
        <path class="cls-3" d="m163.99,36.38c0,1.08.13,2,.6,2.75.41.67,1.1,1.08,1.87,1.08.58,0,1.12-.14,1.59-.49.36-.27.67-.63.88-1.1l.49.25c-.27.47-.59.94-1.1,1.3-.5.38-1.15.63-2.02.63-1.12,0-2.07-.36-2.74-1.17-.56-.72-.88-1.78-.88-3.29,0-1.22.4-2.34,1.1-3.08.58-.59,1.39-.95,2.34-.95s1.75.32,2.36,1.01c.56.72.9,1.8.9,3.06h-5.38Zm4.11-.56c0-.81-.16-1.64-.52-2.2-.32-.45-.76-.76-1.46-.76-.5,0-1.04.25-1.46.76-.36.47-.61,1.21-.67,2.2h4.11Z"/>
      </g>
    </g>
  </g>
</svg>