<?xml version="1.0" encoding="UTF-8"?>
<svg id="_レイヤー_2" data-name="レイヤー 2" xmlns="http://www.w3.org/2000/svg" xmlns:xlink="http://www.w3.org/1999/xlink" viewBox="0 0 200 70">
  <defs>
    <style>
      .cls-1 {
        fill: none;
        filter: url(#drop-shadow-1);
      }

      .cls-2 {
        fill: #fbc21c;
      }

      .cls-3 {
        fill: #273b69;
      }
    </style>
    <filter id="drop-shadow-1" filterUnits="userSpaceOnUse">
      <feOffset dx="3" dy="3"/>
      <feGaussianBlur result="blur" stdDeviation="5"/>
      <feFlood flood-color="#333" flood-opacity=".3"/>
      <feComposite in2="blur" operator="in"/>
      <feComposite in="SourceGraphic"/>
    </filter>
  </defs>
  <g id="_レイヤー_1-2" data-name="レイヤー 1">
    <g>
      <g class="cls-1">
        <path class="cls-2" d="m.82,35.98l198.02,34.01c.61.1,1.16-.36,1.16-.98V.99c0-.61-.55-1.08-1.16-.98L.82,34.02c-1.1.19-1.1,1.76,0,1.95Z"/>
      </g>
      <g>
        <path class="cls-3" d="m98.85,32.67c1.12-.11,1.51-.81,1.82-2.43h.44v2.27h1.89v.58h-1.89v5.82c0,.85.25,1.28.87,1.28.41,0,.75-.14,1.1-.41l.29.4c-.46.41-1.01.65-1.74.65-.91,0-1.74-.43-1.74-1.84v-5.89h-1.03v-.41Z"/>
        <path class="cls-3" d="m105.22,33.28c.69-.65,1.51-.97,2.65-.97s2.01.32,2.71.99c.69.7,1.08,1.8,1.08,3.22,0,1.62-.41,2.68-1.08,3.35-.71.65-1.58.94-2.71.94s-1.92-.27-2.63-.9c-.69-.67-1.12-1.75-1.12-3.39,0-1.42.39-2.54,1.1-3.24Zm.92,6.21c.41.47.98.76,1.73.76s1.32-.29,1.73-.76c.44-.58.75-1.49.75-2.95s-.25-2.29-.73-2.92c-.41-.5-1.01-.76-1.76-.76s-1.3.25-1.73.76c-.48.63-.73,1.53-.73,2.92,0,1.46.3,2.38.75,2.95Z"/>
        <path class="cls-3" d="m114.98,43.2c0,.99.07,1.12,1.01,1.12v.45h-3.26v-.45c.94,0,1.01-.13,1.01-1.13v-8.59c0-1.03-.04-1.15-1.01-1.15v-.4c.69-.11,1.39-.34,1.97-.74l.16.11.07.99h.02c.69-.72,1.42-1.1,2.38-1.1.87,0,1.65.32,2.22,1.03.55.67.92,1.69.92,3.13s-.28,2.5-.89,3.26c-.55.7-1.35,1.08-2.37,1.08s-1.67-.36-2.24-.92h-.02v3.31Zm0-4.18c.55.74,1.25,1.15,2.05,1.15.5,0,1.19-.23,1.6-.92.36-.59.57-1.49.57-2.86,0-1.13-.21-2-.59-2.57-.37-.58-.94-.88-1.55-.88-.89,0-1.57.61-2.08,1.22v4.86Z"/>
        <path class="cls-3" d="m128.32,43.2c0,.99.07,1.12,1.01,1.12v.45h-3.26v-.45c.94,0,1.01-.13,1.01-1.13v-8.59c0-1.03-.04-1.15-1.01-1.15v-.4c.69-.11,1.39-.34,1.97-.74l.16.11.07.99h.02c.69-.72,1.42-1.1,2.38-1.1.87,0,1.65.32,2.22,1.03.55.67.92,1.69.92,3.13s-.28,2.5-.89,3.26c-.55.7-1.35,1.08-2.37,1.08s-1.67-.36-2.24-.92h-.02v3.31Zm0-4.18c.55.74,1.25,1.15,2.05,1.15.5,0,1.19-.23,1.6-.92.36-.59.57-1.49.57-2.86,0-1.13-.21-2-.59-2.57-.37-.58-.94-.88-1.55-.88-.89,0-1.57.61-2.08,1.22v4.86Z"/>
        <path class="cls-3" d="m141.16,39.02c0,.81.18,1.17.53,1.17.18,0,.34-.04.48-.13l.11.41c-.3.14-.62.25-1.08.25-.62,0-1-.32-1.16-.92h-.05c-.61.58-1.32.99-2.49.99-.57,0-1.17-.16-1.64-.54-.43-.34-.71-.86-.71-1.55,0-.83.32-1.48,1.1-2,.6-.41,1.49-.77,2.63-1.03l1.05-.25v-.77c0-.41-.05-.95-.28-1.26-.27-.36-.69-.54-1.28-.54-.53,0-.89.16-1.21.41-.23.18-.39.49-.55.88-.09.25-.25.43-.62.43-.34,0-.5-.25-.5-.52,0-.43.36-.92.93-1.26.46-.27,1.08-.5,2.03-.5,1.07,0,1.69.2,2.13.7.46.52.59,1.01.59,1.8v4.21Zm-1.23-3.02c-.76.22-1.64.47-2.29.88-.69.38-1.19.85-1.19,1.67,0,.47.12.86.39,1.13.27.25.64.43,1.17.43.87,0,1.48-.49,1.92-.94v-3.19Z"/>
        <path class="cls-3" d="m147.74,39.69c2.47,0,3.2,1.17,3.2,2.3,0,1.58-1.48,2.95-4.29,2.95-2.22,0-3.72-.74-3.72-2.16,0-1.08.92-1.87,1.9-2.27-.66-.13-1.3-.49-1.3-1.24,0-.7.59-1.13,1.23-1.53-.78-.5-1.3-1.35-1.3-2.43,0-1.91,1.48-3.01,3.29-3.01.78,0,1.42.2,1.92.45l2.33-.25v.74l-1.8-.05c.57.54.89,1.22.89,2.09,0,2.02-1.55,3.02-3.26,3.02-.59,0-1.08-.11-1.6-.31-.52.31-.8.63-.8.99,0,.5.53.7,1.51.7h1.78Zm-2.24.99c-.92.56-1.49,1.19-1.49,1.98,0,1.08,1.12,1.73,2.74,1.73,2.17,0,3.17-1.04,3.17-2.12,0-.74-.39-1.58-2.3-1.58h-2.12Zm1.32-2.94c1.28,0,2.03-.99,2.03-2.45,0-1.26-.68-2.43-2.06-2.43-1.32,0-2.05,1.17-2.05,2.43,0,1.42.78,2.45,2.08,2.45Z"/>
        <path class="cls-3" d="m153.3,36.38c0,1.08.12,2,.59,2.75.41.67,1.09,1.08,1.85,1.08.57,0,1.1-.14,1.57-.49.36-.27.66-.63.87-1.1l.48.25c-.27.47-.59.94-1.08,1.3-.5.38-1.14.63-1.99.63-1.1,0-2.05-.36-2.7-1.17-.55-.72-.87-1.78-.87-3.29,0-1.22.39-2.34,1.08-3.08.57-.59,1.37-.95,2.31-.95s1.73.32,2.33,1.01c.55.72.89,1.8.89,3.06h-5.32Zm4.06-.56c0-.81-.16-1.64-.52-2.2-.32-.45-.75-.76-1.44-.76-.5,0-1.03.25-1.44.76-.36.47-.6,1.21-.66,2.2h4.06Z"/>
      </g>
    </g>
  </g>
</svg>