<?xml version="1.0" encoding="UTF-8"?>
<svg id="_レイヤー_2" data-name="レイヤー 2" xmlns="http://www.w3.org/2000/svg" xmlns:xlink="http://www.w3.org/1999/xlink" viewBox="0 0 200 70">
  <defs>
    <style>
      .cls-1 {
        fill: none;
        filter: url(#drop-shadow-1);
      }

      .cls-2 {
        fill: #fbc21c;
      }

      .cls-3 {
        fill: #273b69;
      }
    </style>
    <filter id="drop-shadow-1" filterUnits="userSpaceOnUse">
      <feOffset dx="3" dy="3"/>
      <feGaussianBlur result="blur" stdDeviation="5"/>
      <feFlood flood-color="#333" flood-opacity=".3"/>
      <feComposite in2="blur" operator="in"/>
      <feComposite in="SourceGraphic"/>
    </filter>
  </defs>
  <g id="_レイヤー_1-2" data-name="レイヤー 1">
    <g>
      <g class="cls-1">
        <path class="cls-2" d="m.82,35.98l198.02,34.01c.61.1,1.16-.36,1.16-.98V.99c0-.61-.55-1.08-1.16-.98L.82,34.02c-1.1.19-1.1,1.76,0,1.95Z"/>
      </g>
      <g>
        <path class="cls-3" d="m92.42,40.7l-.16-.05v-10.39c0-.86-.09-.99-.94-.99v-.4c.77-.14,1.37-.34,2.02-.74l.16.09v5.02h.04c.47-.49,1.21-.94,2.38-.94,1.1,0,1.91.43,2.45,1.13.59.76.88,1.8.88,2.97,0,1.24-.31,2.41-.95,3.21-.59.74-1.39,1.19-2.48,1.19-1.01,0-1.75-.34-2.43-.9h-.04l-.92.79Zm1.08-1.51c.43.38,1.17,1.03,2.11,1.03.67,0,1.33-.34,1.76-1.12.34-.59.56-1.46.56-2.61,0-.88-.16-1.82-.56-2.52-.36-.63-.92-1.04-1.73-1.04-.92,0-1.53.45-2.14,1.08v5.19Z"/>
        <path class="cls-3" d="m106.68,39.02c0,.81.18,1.17.54,1.17.18,0,.34-.04.49-.13l.11.41c-.31.14-.63.25-1.1.25-.63,0-1.01-.32-1.17-.92h-.05c-.61.58-1.33.99-2.52.99-.58,0-1.19-.16-1.66-.54-.43-.34-.72-.86-.72-1.55,0-.83.32-1.48,1.12-2,.61-.41,1.51-.77,2.66-1.03l1.06-.25v-.77c0-.41-.05-.95-.29-1.26-.27-.36-.7-.54-1.3-.54-.54,0-.9.16-1.22.41-.23.18-.4.49-.56.88-.09.25-.25.43-.63.43-.34,0-.5-.25-.5-.52,0-.43.36-.92.94-1.26.47-.27,1.1-.5,2.05-.5,1.08,0,1.71.2,2.16.7.47.52.59,1.01.59,1.8v4.21Zm-1.24-3.03c-.77.22-1.66.47-2.32.88-.7.38-1.21.85-1.21,1.67,0,.47.13.86.4,1.13.27.25.65.43,1.19.43.88,0,1.49-.49,1.94-.94v-3.19Z"/>
        <path class="cls-3" d="m115.52,39.06c-.25.4-.65.88-1.19,1.22-.49.31-1.12.52-1.91.52-1.13,0-1.95-.36-2.54-.94-.85-.85-1.19-2.07-1.19-3.37s.4-2.25,1.01-2.97c.74-.86,1.71-1.22,2.81-1.22.86,0,1.67.23,2.18.67.34.29.59.63.59,1.03,0,.32-.16.56-.47.56-.38,0-.5-.2-.86-.9-.23-.47-.67-.79-1.42-.79-.68,0-1.37.32-1.84,1.04-.45.68-.68,1.39-.68,2.61,0,1.1.22,1.98.61,2.57.49.72,1.21,1.1,2.03,1.1.52,0,.99-.13,1.42-.4.36-.23.68-.58.99-1.03l.45.29Z"/>
        <path class="cls-3" d="m118.88,36.18l2.58-2.5c.49-.45.61-.72-.25-.72v-.45h2.67v.45c-.52.02-.81.14-1.22.54l-1.89,1.8,2.75,4.18c.4.63.79.7,1.33.68v.45h-2.05l-2.93-4.54-1.01.99v1.91c0,1.04.04,1.19,1.03,1.19v.45h-3.35v-.45c1.04,0,1.08-.14,1.08-1.19v-8.53c0-1.04-.11-1.17-1.08-1.17v-.4c.88-.13,1.49-.32,2.16-.74l.16.11v7.94h.04Z"/>
        <path class="cls-3" d="m129.84,32.67c1.13-.11,1.53-.81,1.84-2.43h.45v2.27h1.91v.58h-1.91v5.82c0,.85.25,1.28.88,1.28.41,0,.76-.14,1.12-.41l.29.4c-.47.41-1.03.65-1.76.65-.92,0-1.76-.43-1.76-1.84v-5.89h-1.04v-.41Z"/>
        <path class="cls-3" d="m136.29,33.28c.7-.65,1.53-.97,2.68-.97s2.03.32,2.74.99c.7.7,1.1,1.8,1.1,3.22,0,1.62-.41,2.68-1.1,3.35-.72.65-1.6.94-2.74.94s-1.94-.27-2.67-.9c-.7-.67-1.13-1.75-1.13-3.38,0-1.42.4-2.54,1.12-3.24Zm.94,6.21c.42.47.99.76,1.75.76s1.33-.29,1.75-.76c.45-.58.76-1.49.76-2.95s-.25-2.29-.74-2.92c-.41-.5-1.03-.76-1.78-.76s-1.31.25-1.75.76c-.49.63-.74,1.53-.74,2.92,0,1.46.31,2.38.76,2.95Z"/>
        <path class="cls-3" d="m149.88,30.38c0-1.03-.04-1.12-1.39-1.12v-.4c1.15-.14,1.69-.32,2.47-.74l.16.11v10.73c0,1.06.05,1.19,1.31,1.19v.45h-3.94v-.45c1.35,0,1.39-.13,1.39-1.19v-8.59Z"/>
        <path class="cls-3" d="m154.95,34.54c0-1.06-.04-1.1-1.39-1.1v-.4c1.06-.11,1.69-.32,2.48-.74l.14.09v6.57c0,1.04.05,1.19,1.33,1.19v.45h-3.96v-.45c1.31,0,1.39-.14,1.39-1.19v-4.43Zm.52-5.26c.43,0,.79.38.79,1.03s-.36,1.01-.81,1.01-.79-.38-.79-1.01.36-1.03.81-1.03Z"/>
        <path class="cls-3" d="m163.56,34.47c-.25-1.28-.77-1.6-1.84-1.6-.47,0-.92.11-1.24.32-.34.22-.52.49-.52.9s.36.88.72,1.08,1.19.54,1.82.85c.61.31.97.56,1.37.94.38.36.67.85.67,1.48,0,.7-.31,1.3-.86,1.71-.59.43-1.39.67-2.34.67-1.08,0-1.82-.2-2.48-.5-.11-.7-.23-1.28-.36-1.82l.47-.13c.4,1.49,1.15,1.89,2.29,1.89.63,0,1.13-.2,1.49-.47.29-.22.5-.67.5-1.12,0-.36-.11-.67-.34-.9-.34-.34-.95-.56-1.84-1.03-.74-.4-1.39-.68-1.82-1.17-.29-.34-.49-.77-.49-1.3,0-.56.25-1.01.74-1.39.47-.36,1.19-.58,2.14-.58.85,0,1.51.14,2.12.36.04.47.13,1.01.27,1.71l-.47.09Z"/>
        <path class="cls-3" d="m165.36,32.67c1.13-.11,1.53-.81,1.84-2.43h.45v2.27h1.91v.58h-1.91v5.82c0,.85.25,1.28.88,1.28.41,0,.76-.14,1.12-.41l.29.4c-.47.41-1.03.65-1.76.65-.92,0-1.76-.43-1.76-1.84v-5.89h-1.04v-.41Z"/>
      </g>
    </g>
  </g>
</svg>