<?xml version="1.0" encoding="UTF-8"?>
<svg id="_レイヤー_2" data-name="レイヤー 2" xmlns="http://www.w3.org/2000/svg" xmlns:xlink="http://www.w3.org/1999/xlink" viewBox="0 0 200 70">
  <defs>
    <style>
      .cls-1 {
        fill: none;
        filter: url(#drop-shadow-1);
      }

      .cls-2 {
        fill: #fbc21c;
      }

      .cls-3 {
        fill: #273b69;
      }
    </style>
    <filter id="drop-shadow-1" filterUnits="userSpaceOnUse">
      <feOffset dx="3" dy="3"/>
      <feGaussianBlur result="blur" stdDeviation="5"/>
      <feFlood flood-color="#333" flood-opacity=".3"/>
      <feComposite in2="blur" operator="in"/>
      <feComposite in="SourceGraphic"/>
    </filter>
  </defs>
  <g id="_レイヤー_1-2" data-name="レイヤー 1">
    <g>
      <g class="cls-1">
        <path class="cls-2" d="m.82,35.98l198.02,34.01c.61.1,1.16-.36,1.16-.98V.99c0-.61-.55-1.08-1.16-.98L.82,34.02c-1.1.19-1.1,1.76,0,1.95Z"/>
      </g>
      <g>
        <path class="cls-3" d="m99.08,34.47c-.25-1.28-.77-1.6-1.84-1.6-.47,0-.92.11-1.24.32-.34.22-.52.49-.52.9s.36.88.72,1.08c.36.2,1.19.54,1.82.85.61.31.97.56,1.37.94.38.36.67.85.67,1.48,0,.7-.31,1.3-.86,1.71-.59.43-1.39.67-2.34.67-1.08,0-1.82-.2-2.48-.5-.11-.7-.23-1.28-.36-1.82l.47-.13c.4,1.49,1.15,1.89,2.29,1.89.63,0,1.13-.2,1.49-.47.29-.22.5-.67.5-1.12,0-.36-.11-.67-.34-.9-.34-.34-.95-.56-1.84-1.03-.74-.4-1.39-.68-1.82-1.17-.29-.34-.49-.77-.49-1.3,0-.56.25-1.01.74-1.39.47-.36,1.19-.58,2.14-.58.85,0,1.51.14,2.12.36.04.47.13,1.01.27,1.71l-.47.09Z"/>
        <path class="cls-3" d="m102.5,36.38c0,1.08.13,2,.59,2.75.41.67,1.1,1.08,1.87,1.08.58,0,1.12-.14,1.58-.49.36-.27.67-.63.88-1.1l.49.25c-.27.47-.59.94-1.1,1.3-.5.38-1.15.63-2.02.63-1.12,0-2.07-.36-2.74-1.17-.56-.72-.88-1.78-.88-3.29,0-1.22.4-2.34,1.1-3.08.58-.59,1.39-.95,2.34-.95s1.75.32,2.36,1.01c.56.72.9,1.8.9,3.06h-5.38Zm4.11-.56c0-.81-.16-1.64-.52-2.2-.32-.45-.76-.76-1.46-.76-.5,0-1.04.25-1.46.76-.36.47-.61,1.21-.67,2.2h4.11Z"/>
        <path class="cls-3" d="m116.22,39c0,1.01.07,1.15.88,1.15v.45h-3.04v-.45c.86,0,.92-.11.92-1.19v-4.02c0-.7-.09-1.28-.43-1.64-.23-.23-.56-.36-1.04-.36-.76,0-1.57.68-2.29,1.67v4.34c0,1.08.02,1.19.86,1.19v.45h-3.15v-.45c.97,0,1.04-.11,1.04-1.19v-4.38c0-1.04-.09-1.17-1.04-1.15v-.4c.79-.13,1.4-.31,2-.74l.18.11.07,1.39h.04c.72-.92,1.64-1.49,2.63-1.49.77,0,1.33.2,1.73.58.41.4.65,1.04.65,2v4.12Z"/>
        <path class="cls-3" d="m125.2,39.18c0,.94.14,1.01.97,1.01v.38c-.36,0-.68,0-.97.04-.36.04-.67.09-1.01.22l-.13-.09-.05-.94h-.04c-.38.43-1.19,1.01-2.36,1.01-1.01,0-1.84-.38-2.45-1.13-.61-.74-.9-1.84-.9-3.28,0-1.12.29-2.16.88-2.9.58-.72,1.44-1.19,2.65-1.19,1.03,0,1.73.49,2.14.88h.02v-2.83c0-.97-.07-1.1-1.04-1.1v-.4c.92-.13,1.5-.34,2.11-.74l.18.09v10.96Zm-1.24-5.08c-.43-.63-1.13-1.19-1.96-1.19-.59,0-1.33.23-1.8.9-.34.5-.61,1.4-.61,2.7,0,1.12.23,1.96.63,2.65.36.61.94,1.03,1.69,1.03.88,0,1.6-.63,2.05-1.21v-4.88Z"/>
        <path class="cls-3" d="m143.65,39.06c0,.99.11,1.1.92,1.1v.45h-3.1v-.45c.83,0,.94-.13.94-1.01v-3.89c0-.68-.09-1.24-.31-1.64-.23-.43-.63-.67-1.17-.67-.9,0-1.64.65-2.21,1.55v4.56c0,1.01.07,1.1.94,1.1v.45h-3.1v-.45c.86,0,.92-.11.92-1.01v-3.85c0-.81-.07-1.31-.34-1.76-.22-.34-.59-.58-1.12-.58-.74,0-1.42.56-2.23,1.57v4.52c0,1.01.07,1.12.96,1.12v.45h-3.28v-.45c1.01,0,1.08-.13,1.08-1.19v-4.39c0-1.03-.09-1.15-1.08-1.13v-.4c.83-.13,1.44-.31,2.05-.74l.16.11.07,1.3h.02c.68-.72,1.55-1.4,2.58-1.4.74,0,1.24.2,1.6.49.29.27.5.59.61.99h.05c.68-.79,1.53-1.48,2.7-1.48.63,0,1.28.18,1.71.67.41.43.63,1.08.63,2.18v3.91Z"/>
        <path class="cls-3" d="m151.69,39.02c0,.81.18,1.17.54,1.17.18,0,.34-.04.49-.13l.11.41c-.31.14-.63.25-1.1.25-.63,0-1.01-.32-1.17-.92h-.05c-.61.58-1.33.99-2.52.99-.58,0-1.19-.16-1.66-.54-.43-.34-.72-.86-.72-1.55,0-.83.32-1.48,1.12-2,.61-.41,1.51-.77,2.66-1.03l1.06-.25v-.77c0-.41-.05-.95-.29-1.26-.27-.36-.7-.54-1.3-.54-.54,0-.9.16-1.22.41-.23.18-.4.49-.56.88-.09.25-.25.43-.63.43-.34,0-.5-.25-.5-.52,0-.43.36-.92.94-1.26.47-.27,1.1-.5,2.05-.5,1.08,0,1.71.2,2.16.7.47.52.59,1.01.59,1.8v4.21Zm-1.24-3.02c-.77.22-1.66.47-2.32.88-.7.38-1.21.85-1.21,1.67,0,.47.13.86.4,1.13.27.25.65.43,1.19.43.88,0,1.49-.49,1.94-.94v-3.19Z"/>
        <path class="cls-3" d="m154.97,34.54c0-1.06-.04-1.1-1.39-1.1v-.4c1.06-.11,1.69-.32,2.48-.74l.14.09v6.57c0,1.04.05,1.19,1.33,1.19v.45h-3.96v-.45c1.31,0,1.39-.14,1.39-1.19v-4.43Zm.52-5.26c.43,0,.79.38.79,1.03s-.36,1.01-.81,1.01-.79-.38-.79-1.01.36-1.03.81-1.03Z"/>
        <path class="cls-3" d="m159.9,30.38c0-1.03-.04-1.12-1.39-1.12v-.4c1.15-.14,1.69-.32,2.47-.74l.16.11v10.73c0,1.06.05,1.19,1.31,1.19v.45h-3.94v-.45c1.35,0,1.39-.13,1.39-1.19v-8.59Z"/>
      </g>
    </g>
  </g>
</svg>