<?xml version="1.0" encoding="UTF-8"?>
<svg id="_レイヤー_2" data-name="レイヤー 2" xmlns="http://www.w3.org/2000/svg" viewBox="0 0 70 70">
  <defs>
    <style>
      .cls-1 {
        fill: #fbc21c;
      }

      .cls-2 {
        fill: #273b69;
      }
    </style>
  </defs>
  <g id="_レイヤー_1-2" data-name="レイヤー 1">
    <g>
      <circle class="cls-1" cx="35" cy="35" r="35"/>
      <g>
        <path class="cls-2" d="m21.98,29.14h-4.02v-1.26h9.56v1.26h-4.03v11.92h-1.51v-11.92Z"/>
        <path class="cls-2" d="m29.14,34.41c0-4.2,2.3-6.77,5.56-6.77s5.58,2.58,5.58,6.77-2.3,6.88-5.58,6.88-5.56-2.67-5.56-6.88Zm9.61,0c0-3.37-1.6-5.46-4.05-5.46s-4.03,2.09-4.03,5.46,1.6,5.56,4.03,5.56,4.05-2.18,4.05-5.56Z"/>
        <path class="cls-2" d="m43.18,27.88h3.65c2.97,0,4.9.99,4.9,3.82s-1.91,4.03-4.83,4.03h-2.23v5.33h-1.49v-13.18Zm3.51,6.63c2.41,0,3.57-.85,3.57-2.81s-1.22-2.61-3.64-2.61h-1.94v5.42h2.02Z"/>
      </g>
    </g>
  </g>
</svg>