<?xml version="1.0" encoding="UTF-8"?>
<svg id="_レイヤー_2" data-name="レイヤー 2" xmlns="http://www.w3.org/2000/svg" xmlns:xlink="http://www.w3.org/1999/xlink" viewBox="0 0 200 70">
  <defs>
    <style>
      .cls-1 {
        fill: none;
        filter: url(#drop-shadow-1);
      }

      .cls-2 {
        fill: #fbc21c;
      }

      .cls-3 {
        fill: #273b69;
      }
    </style>
    <filter id="drop-shadow-1" filterUnits="userSpaceOnUse">
      <feOffset dx="3" dy="3"/>
      <feGaussianBlur result="blur" stdDeviation="5"/>
      <feFlood flood-color="#333" flood-opacity=".3"/>
      <feComposite in2="blur" operator="in"/>
      <feComposite in="SourceGraphic"/>
    </filter>
  </defs>
  <g id="_レイヤー_1-2" data-name="レイヤー 1">
    <g>
      <g class="cls-1">
        <path class="cls-2" d="m.82,35.98l198.02,34.01c.61.1,1.16-.36,1.16-.98V.99c0-.61-.55-1.08-1.16-.98L.82,34.02c-1.1.19-1.1,1.76,0,1.95Z"/>
      </g>
      <g>
        <path class="cls-3" d="m97.8,40.81l-2.95-6.73c-.47-1.03-.59-1.12-1.21-1.12v-.45h3.15v.45c-.9,0-.97.16-.67.9l2.2,5.29h.04l2.3-5.56c.2-.49.14-.63-.68-.63v-.45h2.3v.45c-.52,0-.65.09-.95.79l-3.06,7.06h-.47Z"/>
        <path class="cls-3" d="m104.48,34.54c0-1.06-.04-1.1-1.39-1.1v-.4c1.06-.11,1.69-.32,2.48-.74l.14.09v6.57c0,1.04.05,1.19,1.33,1.19v.45h-3.96v-.45c1.31,0,1.39-.14,1.39-1.19v-4.43Zm.52-5.26c.43,0,.79.38.79,1.03s-.36,1.01-.81,1.01-.79-.38-.79-1.01.36-1.03.81-1.03Z"/>
        <path class="cls-3" d="m109.5,36.38c0,1.08.13,2,.59,2.75.41.67,1.1,1.08,1.87,1.08.58,0,1.12-.14,1.58-.49.36-.27.67-.63.88-1.1l.49.25c-.27.47-.59.94-1.1,1.3-.5.38-1.15.63-2.02.63-1.12,0-2.07-.36-2.74-1.17-.56-.72-.88-1.78-.88-3.29,0-1.22.4-2.34,1.1-3.08.58-.59,1.39-.95,2.34-.95s1.75.32,2.36,1.01c.56.72.9,1.8.9,3.06h-5.38Zm4.11-.56c0-.81-.16-1.64-.52-2.2-.32-.45-.76-.76-1.46-.76-.5,0-1.04.25-1.46.76-.36.47-.61,1.21-.67,2.2h4.11Z"/>
        <path class="cls-3" d="m124.91,40.81h-.68l-2.09-6.3h-.04l-2.16,6.3h-.68l-2.48-6.73c-.4-1.04-.52-1.12-1.13-1.12v-.45h3.03v.45c-.9,0-1.01.16-.72.94l1.89,5.29h.05l1.89-5.58-.13-.34c-.13-.27-.29-.31-.95-.31v-.45h3.08v.45c-.9,0-1.03.11-.77.86l1.8,5.37h.05l1.93-5.6c.16-.47.05-.63-.77-.63v-.45h2.27v.45c-.5,0-.68.13-.92.81l-2.45,7.04Z"/>
        <path class="cls-3" d="m145.65,39.06c0,.99.11,1.1.92,1.1v.45h-3.1v-.45c.83,0,.94-.13.94-1.01v-3.89c0-.68-.09-1.24-.31-1.64-.23-.43-.63-.67-1.17-.67-.9,0-1.64.65-2.21,1.55v4.56c0,1.01.07,1.1.94,1.1v.45h-3.1v-.45c.86,0,.92-.11.92-1.01v-3.85c0-.81-.07-1.31-.34-1.76-.22-.34-.59-.58-1.12-.58-.74,0-1.42.56-2.23,1.57v4.52c0,1.01.07,1.12.96,1.12v.45h-3.28v-.45c1.01,0,1.08-.13,1.08-1.19v-4.39c0-1.03-.09-1.15-1.08-1.13v-.4c.83-.13,1.44-.31,2.05-.74l.16.11.07,1.3h.02c.68-.72,1.55-1.4,2.58-1.4.74,0,1.24.2,1.6.49.29.27.5.59.61.99h.05c.68-.79,1.53-1.48,2.7-1.48.63,0,1.28.18,1.71.67.41.43.63,1.08.63,2.18v3.91Z"/>
        <path class="cls-3" d="m148.81,33.28c.7-.65,1.53-.97,2.68-.97s2.03.32,2.74.99c.7.7,1.1,1.8,1.1,3.22,0,1.62-.41,2.68-1.1,3.35-.72.65-1.6.94-2.74.94s-1.94-.27-2.67-.9c-.7-.67-1.13-1.75-1.13-3.39,0-1.42.4-2.54,1.12-3.24Zm.94,6.21c.42.47.99.76,1.75.76s1.33-.29,1.75-.76c.45-.58.76-1.49.76-2.95s-.25-2.29-.74-2.92c-.41-.5-1.03-.76-1.78-.76s-1.31.25-1.75.76c-.49.63-.74,1.53-.74,2.92,0,1.46.31,2.38.76,2.95Z"/>
        <path class="cls-3" d="m157.44,34.56c0-1.03-.09-1.12-.97-1.12v-.4c.72-.11,1.31-.31,1.96-.74l.16.11.05,1.21h.02c.7-.92,1.19-1.31,1.91-1.31.4,0,.67.14.9.36.23.22.36.47.36.77,0,.4-.2.63-.52.63-.27,0-.49-.13-.61-.5-.14-.45-.25-.59-.49-.59-.47,0-.94.56-1.53,1.46v4.54c0,1.06.09,1.19,1.15,1.19v.45h-3.37v-.45c.9,0,.97-.11.97-1.19v-4.41Z"/>
        <path class="cls-3" d="m163.99,36.38c0,1.08.13,2,.59,2.75.41.67,1.1,1.08,1.87,1.08.58,0,1.12-.14,1.58-.49.36-.27.67-.63.88-1.1l.49.25c-.27.47-.59.94-1.1,1.3-.5.38-1.15.63-2.02.63-1.12,0-2.07-.36-2.74-1.17-.56-.72-.88-1.78-.88-3.29,0-1.22.4-2.34,1.1-3.08.58-.59,1.39-.95,2.34-.95s1.75.32,2.36,1.01c.56.72.9,1.8.9,3.06h-5.38Zm4.11-.56c0-.81-.16-1.64-.52-2.2-.32-.45-.76-.76-1.46-.76-.5,0-1.04.25-1.46.76-.36.47-.61,1.21-.67,2.2h4.11Z"/>
      </g>
    </g>
  </g>
</svg>